<svg width="77" height="14" viewBox="0 0 77 14" fill="none" xmlns="http://www.w3.org/2000/svg">
<path d="M5.54433 1.19657C5.80541 0.568887 6.69459 0.568888 6.95567 1.19657L7.98837 3.6794C8.09844 3.94402 8.34729 4.12482 8.63297 4.14772L11.3134 4.36261C11.9911 4.41693 12.2659 5.26262 11.7496 5.70488L9.70737 7.45418C9.4897 7.64063 9.39464 7.93318 9.46114 8.21196L10.0851 10.8275C10.2428 11.4888 9.52345 12.0115 8.94328 11.6571L6.64837 10.2554C6.4038 10.1061 6.0962 10.1061 5.85163 10.2554L3.55671 11.6571C2.97655 12.0115 2.25718 11.4888 2.41493 10.8275L3.03886 8.21196C3.10536 7.93318 3.0103 7.64063 2.79263 7.45418L0.750437 5.70488C0.234126 5.26262 0.508902 4.41693 1.18656 4.36261L3.86703 4.14772C4.15271 4.12482 4.40156 3.94402 4.51163 3.6794L5.54433 1.19657Z" fill="#FFE559"/>
<path d="M22.8087 1.25772L23.8414 3.74055C23.9744 4.0603 24.2751 4.27876 24.6202 4.30644L27.3007 4.52132C27.8372 4.56433 28.0547 5.23383 27.646 5.58396L25.6038 7.33325C25.3408 7.55854 25.2259 7.91205 25.3063 8.24891L25.9302 10.8645C26.0551 11.388 25.4856 11.8018 25.0263 11.5212L22.7314 10.1196C22.4358 9.93905 22.0642 9.93906 21.7686 10.1196L19.4737 11.5212C19.0144 11.8018 18.4449 11.388 18.5698 10.8645L19.1937 8.24891C19.2741 7.91205 19.1592 7.55854 18.8962 7.33325L16.854 5.58396C16.4453 5.23383 16.6628 4.56433 17.1993 4.52132L19.8798 4.30644C20.2249 4.27876 20.5256 4.0603 20.6586 3.74055L21.6913 1.25772C21.898 0.760803 22.602 0.760804 22.8087 1.25772Z" stroke="#888888" stroke-width="0.318449"/>
<path d="M38.8087 1.25772L39.8414 3.74055C39.9744 4.0603 40.2751 4.27876 40.6202 4.30644L43.3007 4.52132C43.8372 4.56433 44.0547 5.23383 43.646 5.58396L41.6038 7.33325C41.3408 7.55854 41.2259 7.91205 41.3063 8.24891L41.9302 10.8645C42.0551 11.388 41.4856 11.8018 41.0263 11.5212L38.7314 10.1196C38.4358 9.93905 38.0642 9.93906 37.7686 10.1196L35.4737 11.5212C35.0144 11.8018 34.4449 11.388 34.5698 10.8645L35.1937 8.24891C35.2741 7.91205 35.1592 7.55854 34.8962 7.33325L32.854 5.58396C32.4453 5.23383 32.6628 4.56433 33.1993 4.52132L35.8798 4.30644C36.2249 4.27876 36.5256 4.0603 36.6586 3.74055L37.6913 1.25772C37.898 0.760803 38.602 0.760804 38.8087 1.25772Z" stroke="#888888" stroke-width="0.318449"/>
<path d="M54.8087 1.25772L55.8414 3.74055C55.9744 4.0603 56.2751 4.27876 56.6202 4.30644L59.3007 4.52132C59.8372 4.56433 60.0547 5.23383 59.646 5.58396L57.6038 7.33325C57.3408 7.55854 57.2259 7.91205 57.3063 8.24891L57.9302 10.8645C58.0551 11.388 57.4856 11.8018 57.0263 11.5212L54.7314 10.1196C54.4358 9.93905 54.0642 9.93906 53.7686 10.1196L51.4737 11.5212C51.0144 11.8018 50.4449 11.388 50.5698 10.8645L51.1937 8.24891C51.2741 7.91205 51.1592 7.55854 50.8962 7.33325L48.854 5.58396C48.4453 5.23383 48.6628 4.56433 49.1993 4.52132L51.8798 4.30644C52.2249 4.27876 52.5256 4.0603 52.6586 3.74055L53.6913 1.25772C53.898 0.760803 54.602 0.760804 54.8087 1.25772Z" stroke="#888888" stroke-width="0.318449"/>
<path d="M70.8087 1.25772L71.8414 3.74055C71.9744 4.0603 72.2751 4.27876 72.6202 4.30644L75.3007 4.52132C75.8372 4.56433 76.0547 5.23383 75.646 5.58396L73.6038 7.33325C73.3408 7.55854 73.2259 7.91205 73.3063 8.24891L73.9302 10.8645C74.0551 11.388 73.4856 11.8018 73.0263 11.5212L70.7314 10.1196C70.4358 9.93905 70.0642 9.93906 69.7686 10.1196L67.4737 11.5212C67.0144 11.8018 66.4449 11.388 66.5698 10.8645L67.1937 8.24891C67.2741 7.91205 67.1592 7.55854 66.8962 7.33325L64.854 5.58396C64.4453 5.23383 64.6628 4.56433 65.1993 4.52132L67.8798 4.30644C68.2249 4.27876 68.5256 4.0603 68.6586 3.74055L69.6913 1.25772C69.898 0.760803 70.602 0.760804 70.8087 1.25772Z" stroke="#888888" stroke-width="0.318449"/>
</svg>
