<svg width="77" height="14" viewBox="0 0 77 14" fill="none" xmlns="http://www.w3.org/2000/svg">
<path d="M5.54433 1.19657C5.80541 0.568887 6.69459 0.568888 6.95567 1.19657L7.98837 3.6794C8.09844 3.94402 8.34729 4.12482 8.63297 4.14772L11.3134 4.36261C11.9911 4.41693 12.2659 5.26262 11.7496 5.70488L9.70737 7.45418C9.4897 7.64063 9.39464 7.93318 9.46114 8.21196L10.0851 10.8275C10.2428 11.4888 9.52345 12.0115 8.94328 11.6571L6.64837 10.2554C6.4038 10.1061 6.0962 10.1061 5.85163 10.2554L3.55671 11.6571C2.97655 12.0115 2.25718 11.4888 2.41493 10.8275L3.03886 8.21196C3.10536 7.93318 3.0103 7.64063 2.79263 7.45418L0.750437 5.70488C0.234126 5.26262 0.508902 4.41693 1.18656 4.36261L3.86703 4.14772C4.15271 4.12482 4.40156 3.94402 4.51163 3.6794L5.54433 1.19657Z" fill="#FFE559"/>
<path d="M21.5443 1.19657C21.8054 0.568887 22.6946 0.568888 22.9557 1.19657L23.9884 3.6794C24.0984 3.94402 24.3473 4.12482 24.633 4.14772L27.3134 4.36261C27.9911 4.41693 28.2659 5.26262 27.7496 5.70488L25.7074 7.45418C25.4897 7.64063 25.3946 7.93318 25.4611 8.21196L26.0851 10.8275C26.2428 11.4888 25.5234 12.0115 24.9433 11.6571L22.6484 10.2554C22.4038 10.1061 22.0962 10.1061 21.8516 10.2554L19.5567 11.6571C18.9765 12.0115 18.2572 11.4888 18.4149 10.8275L19.0389 8.21196C19.1054 7.93318 19.0103 7.64063 18.7926 7.45418L16.7504 5.70488C16.2341 5.26262 16.5089 4.41693 17.1866 4.36261L19.867 4.14772C20.1527 4.12482 20.4016 3.94402 20.5116 3.6794L21.5443 1.19657Z" fill="#FFE559"/>
<path d="M37.5443 1.19657C37.8054 0.568887 38.6946 0.568888 38.9557 1.19657L39.9884 3.6794C40.0984 3.94402 40.3473 4.12482 40.633 4.14772L43.3134 4.36261C43.9911 4.41693 44.2659 5.26262 43.7496 5.70488L41.7074 7.45418C41.4897 7.64063 41.3946 7.93318 41.4611 8.21196L42.0851 10.8275C42.2428 11.4888 41.5234 12.0115 40.9433 11.6571L38.6484 10.2554C38.4038 10.1061 38.0962 10.1061 37.8516 10.2554L35.5567 11.6571C34.9765 12.0115 34.2572 11.4888 34.4149 10.8275L35.0389 8.21196C35.1054 7.93318 35.0103 7.64063 34.7926 7.45418L32.7504 5.70488C32.2341 5.26262 32.5089 4.41693 33.1866 4.36261L35.867 4.14772C36.1527 4.12482 36.4016 3.94402 36.5116 3.6794L37.5443 1.19657Z" fill="#FFE559"/>
<path d="M54.8087 1.25772L55.8414 3.74055C55.9744 4.0603 56.2751 4.27876 56.6202 4.30644L59.3007 4.52132C59.8372 4.56433 60.0547 5.23383 59.646 5.58396L57.6038 7.33325C57.3408 7.55854 57.2259 7.91205 57.3063 8.24891L57.9302 10.8645C58.0551 11.388 57.4856 11.8018 57.0263 11.5212L54.7314 10.1196C54.4358 9.93905 54.0642 9.93906 53.7686 10.1196L51.4737 11.5212C51.0144 11.8018 50.4449 11.388 50.5698 10.8645L51.1937 8.24891C51.2741 7.91205 51.1592 7.55854 50.8962 7.33325L48.854 5.58396C48.4453 5.23383 48.6628 4.56433 49.1993 4.52132L51.8798 4.30644C52.2249 4.27876 52.5256 4.0603 52.6586 3.74055L53.6913 1.25772C53.898 0.760803 54.602 0.760804 54.8087 1.25772Z" stroke="#888888" stroke-width="0.318449"/>
<path d="M70.8087 1.25772L71.8414 3.74055C71.9744 4.0603 72.2751 4.27876 72.6202 4.30644L75.3007 4.52132C75.8372 4.56433 76.0547 5.23383 75.646 5.58396L73.6038 7.33325C73.3408 7.55854 73.2259 7.91205 73.3063 8.24891L73.9302 10.8645C74.0551 11.388 73.4856 11.8018 73.0263 11.5212L70.7314 10.1196C70.4358 9.93905 70.0642 9.93906 69.7686 10.1196L67.4737 11.5212C67.0144 11.8018 66.4449 11.388 66.5698 10.8645L67.1937 8.24891C67.2741 7.91205 67.1592 7.55854 66.8962 7.33325L64.854 5.58396C64.4453 5.23383 64.6628 4.56433 65.1993 4.52132L67.8798 4.30644C68.2249 4.27876 68.5256 4.0603 68.6586 3.74055L69.6913 1.25772C69.898 0.760803 70.602 0.760804 70.8087 1.25772Z" stroke="#888888" stroke-width="0.318449"/>
</svg>
