<svg width="77" height="14" viewBox="0 0 77 14" fill="none" xmlns="http://www.w3.org/2000/svg">
<path d="M5.54433 1.19657C5.80541 0.568887 6.69459 0.568888 6.95567 1.19657L7.98837 3.6794C8.09844 3.94402 8.34729 4.12482 8.63297 4.14772L11.3134 4.36261C11.9911 4.41693 12.2659 5.26262 11.7496 5.70488L9.70737 7.45418C9.4897 7.64063 9.39464 7.93318 9.46114 8.21196L10.0851 10.8275C10.2428 11.4888 9.52345 12.0115 8.94328 11.6571L6.64837 10.2554C6.4038 10.1061 6.0962 10.1061 5.85163 10.2554L3.55671 11.6571C2.97655 12.0115 2.25718 11.4888 2.41493 10.8275L3.03886 8.21196C3.10536 7.93318 3.0103 7.64063 2.79263 7.45418L0.750437 5.70488C0.234126 5.26262 0.508902 4.41693 1.18656 4.36261L3.86703 4.14772C4.15271 4.12482 4.40156 3.94402 4.51163 3.6794L5.54433 1.19657Z" fill="#FFE559"/>
<path d="M21.5443 1.19657C21.8054 0.568887 22.6946 0.568888 22.9557 1.19657L23.9884 3.6794C24.0984 3.94402 24.3473 4.12482 24.633 4.14772L27.3134 4.36261C27.9911 4.41693 28.2659 5.26262 27.7496 5.70488L25.7074 7.45418C25.4897 7.64063 25.3946 7.93318 25.4611 8.21196L26.0851 10.8275C26.2428 11.4888 25.5234 12.0115 24.9433 11.6571L22.6484 10.2554C22.4038 10.1061 22.0962 10.1061 21.8516 10.2554L19.5567 11.6571C18.9765 12.0115 18.2572 11.4888 18.4149 10.8275L19.0389 8.21196C19.1054 7.93318 19.0103 7.64063 18.7926 7.45418L16.7504 5.70488C16.2341 5.26262 16.5089 4.41693 17.1866 4.36261L19.867 4.14772C20.1527 4.12482 20.4016 3.94402 20.5116 3.6794L21.5443 1.19657Z" fill="#FFE559"/>
<path d="M37.5443 1.19657C37.8054 0.568887 38.6946 0.568888 38.9557 1.19657L39.9884 3.6794C40.0984 3.94402 40.3473 4.12482 40.633 4.14772L43.3134 4.36261C43.9911 4.41693 44.2659 5.26262 43.7496 5.70488L41.7074 7.45418C41.4897 7.64063 41.3946 7.93318 41.4611 8.21196L42.0851 10.8275C42.2428 11.4888 41.5234 12.0115 40.9433 11.6571L38.6484 10.2554C38.4038 10.1061 38.0962 10.1061 37.8516 10.2554L35.5567 11.6571C34.9765 12.0115 34.2572 11.4888 34.4149 10.8275L35.0389 8.21196C35.1054 7.93318 35.0103 7.64063 34.7926 7.45418L32.7504 5.70488C32.2341 5.26262 32.5089 4.41693 33.1866 4.36261L35.867 4.14772C36.1527 4.12482 36.4016 3.94402 36.5116 3.6794L37.5443 1.19657Z" fill="#FFE559"/>
<path d="M53.5443 1.19657C53.8054 0.568887 54.6946 0.568888 54.9557 1.19657L55.9884 3.6794C56.0984 3.94402 56.3473 4.12482 56.633 4.14772L59.3134 4.36261C59.9911 4.41693 60.2659 5.26262 59.7496 5.70488L57.7074 7.45418C57.4897 7.64063 57.3946 7.93318 57.4611 8.21196L58.0851 10.8275C58.2428 11.4888 57.5234 12.0115 56.9433 11.6571L54.6484 10.2554C54.4038 10.1061 54.0962 10.1061 53.8516 10.2554L51.5567 11.6571C50.9765 12.0115 50.2572 11.4888 50.4149 10.8275L51.0389 8.21196C51.1054 7.93318 51.0103 7.64063 50.7926 7.45418L48.7504 5.70488C48.2341 5.26262 48.5089 4.41693 49.1866 4.36261L51.867 4.14772C52.1527 4.12482 52.4016 3.94402 52.5116 3.6794L53.5443 1.19657Z" fill="#FFE559"/>
<path d="M69.5443 1.19657C69.8054 0.568887 70.6946 0.568888 70.9557 1.19657L71.9884 3.6794C72.0984 3.94402 72.3473 4.12482 72.633 4.14772L75.3134 4.36261C75.9911 4.41693 76.2659 5.26262 75.7496 5.70488L73.7074 7.45418C73.4897 7.64063 73.3946 7.93318 73.4611 8.21196L74.0851 10.8275C74.2428 11.4888 73.5234 12.0115 72.9433 11.6571L70.6484 10.2554C70.4038 10.1061 70.0962 10.1061 69.8516 10.2554L67.5567 11.6571C66.9765 12.0115 66.2572 11.4888 66.4149 10.8275L67.0389 8.21196C67.1054 7.93318 67.0103 7.64063 66.7926 7.45418L64.7504 5.70488C64.2341 5.26262 64.5089 4.41693 65.1866 4.36261L67.867 4.14772C68.1527 4.12482 68.4016 3.94402 68.5116 3.6794L69.5443 1.19657Z" fill="#FFE559"/>
</svg>
