<svg width="157" height="30" viewBox="0 0 157 30" fill="none" xmlns="http://www.w3.org/2000/svg">
<path d="M0 6C0 2.68629 2.68629 0 6 0H39.1833C40.3679 0 41.5259 0.350628 42.5115 1.0077L42.8906 1.2604C43.5624 1.70827 44.4376 1.70827 45.1094 1.2604L45.4885 1.0077C46.4741 0.350628 47.6321 0 48.8167 0H151C154.314 0 157 2.68629 157 6V24C157 27.3137 154.314 30 151 30H48.1261C47.3918 30 46.674 29.7827 46.063 29.3754V29.3754C44.8138 28.5425 43.1862 28.5425 41.937 29.3754V29.3754C41.326 29.7827 40.6082 30 39.8739 30H6C2.68629 30 0 27.3137 0 24V6Z" fill="url(#paint0_linear_2054_10656)"/>
<path d="M59.5027 19.084C59.3747 19.084 59.2707 19.056 59.1907 19C59.1187 18.936 59.0747 18.856 59.0587 18.76C59.0507 18.656 59.0747 18.54 59.1307 18.412L62.4307 10.9C62.5027 10.74 62.5867 10.628 62.6827 10.564C62.7867 10.492 62.8987 10.456 63.0187 10.456C63.1387 10.456 63.2467 10.492 63.3427 10.564C63.4467 10.628 63.5307 10.74 63.5947 10.9L66.9067 18.412C66.9707 18.54 66.9947 18.656 66.9787 18.76C66.9707 18.864 66.9307 18.944 66.8587 19C66.7867 19.056 66.6867 19.084 66.5587 19.084C66.4147 19.084 66.2987 19.048 66.2107 18.976C66.1227 18.896 66.0507 18.784 65.9947 18.64L65.1067 16.588L65.5867 16.84H60.4267L60.9187 16.588L60.0427 18.64C59.9707 18.792 59.8947 18.904 59.8147 18.976C59.7347 19.048 59.6307 19.084 59.5027 19.084ZM63.0067 11.692L61.0747 16.24L60.7867 16.012H65.2267L64.9627 16.24L63.0307 11.692H63.0067ZM68.7729 21.244C68.6129 21.244 68.4929 21.2 68.4129 21.112C68.3329 21.032 68.2929 20.912 68.2929 20.752V13.576C68.2929 13.416 68.3329 13.296 68.4129 13.216C68.4929 13.128 68.6089 13.084 68.7609 13.084C68.9209 13.084 69.0409 13.128 69.1209 13.216C69.2089 13.296 69.2529 13.416 69.2529 13.576V14.716L69.1209 14.548C69.2489 14.092 69.5009 13.732 69.8769 13.468C70.2609 13.196 70.7169 13.06 71.2449 13.06C71.7649 13.06 72.2169 13.184 72.6009 13.432C72.9929 13.672 73.2929 14.02 73.5009 14.476C73.7169 14.924 73.8249 15.46 73.8249 16.084C73.8249 16.7 73.7169 17.236 73.5009 17.692C73.2929 18.14 72.9969 18.488 72.6129 18.736C72.2289 18.984 71.7729 19.108 71.2449 19.108C70.7169 19.108 70.2649 18.976 69.8889 18.712C69.5129 18.44 69.2569 18.08 69.1209 17.632H69.2649V20.752C69.2649 20.912 69.2209 21.032 69.1329 21.112C69.0449 21.2 68.9249 21.244 68.7729 21.244ZM71.0409 18.328C71.4089 18.328 71.7249 18.24 71.9889 18.064C72.2609 17.888 72.4689 17.632 72.6129 17.296C72.7649 16.96 72.8409 16.556 72.8409 16.084C72.8409 15.356 72.6769 14.8 72.3489 14.416C72.0289 14.032 71.5929 13.84 71.0409 13.84C70.6809 13.84 70.3649 13.928 70.0929 14.104C69.8209 14.272 69.6089 14.524 69.4569 14.86C69.3129 15.188 69.2409 15.596 69.2409 16.084C69.2409 16.804 69.4049 17.36 69.7329 17.752C70.0609 18.136 70.4969 18.328 71.0409 18.328ZM75.769 21.244C75.609 21.244 75.489 21.2 75.409 21.112C75.329 21.032 75.289 20.912 75.289 20.752V13.576C75.289 13.416 75.329 13.296 75.409 13.216C75.489 13.128 75.605 13.084 75.757 13.084C75.917 13.084 76.037 13.128 76.117 13.216C76.205 13.296 76.249 13.416 76.249 13.576V14.716L76.117 14.548C76.245 14.092 76.497 13.732 76.873 13.468C77.257 13.196 77.713 13.06 78.241 13.06C78.761 13.06 79.213 13.184 79.597 13.432C79.989 13.672 80.289 14.02 80.497 14.476C80.713 14.924 80.821 15.46 80.821 16.084C80.821 16.7 80.713 17.236 80.497 17.692C80.289 18.14 79.993 18.488 79.609 18.736C79.225 18.984 78.769 19.108 78.241 19.108C77.713 19.108 77.261 18.976 76.885 18.712C76.509 18.44 76.253 18.08 76.117 17.632H76.261V20.752C76.261 20.912 76.217 21.032 76.129 21.112C76.041 21.2 75.921 21.244 75.769 21.244ZM78.037 18.328C78.405 18.328 78.721 18.24 78.985 18.064C79.257 17.888 79.465 17.632 79.609 17.296C79.761 16.96 79.837 16.556 79.837 16.084C79.837 15.356 79.673 14.8 79.345 14.416C79.025 14.032 78.589 13.84 78.037 13.84C77.677 13.84 77.361 13.928 77.089 14.104C76.817 14.272 76.605 14.524 76.453 14.86C76.309 15.188 76.237 15.596 76.237 16.084C76.237 16.804 76.401 17.36 76.729 17.752C77.057 18.136 77.493 18.328 78.037 18.328ZM84.061 19.108C83.485 19.108 83.045 18.932 82.741 18.58C82.437 18.228 82.285 17.724 82.285 17.068V10.948C82.285 10.788 82.325 10.668 82.405 10.588C82.485 10.5 82.605 10.456 82.765 10.456C82.917 10.456 83.037 10.5 83.125 10.588C83.213 10.668 83.257 10.788 83.257 10.948V16.996C83.257 17.428 83.341 17.752 83.509 17.968C83.685 18.176 83.941 18.28 84.277 18.28C84.349 18.28 84.413 18.276 84.469 18.268C84.525 18.26 84.581 18.256 84.637 18.256C84.725 18.248 84.785 18.268 84.817 18.316C84.857 18.364 84.877 18.46 84.877 18.604C84.877 18.748 84.845 18.856 84.781 18.928C84.717 19 84.613 19.048 84.469 19.072C84.405 19.08 84.337 19.088 84.265 19.096C84.193 19.104 84.125 19.108 84.061 19.108ZM87.0029 21.244C86.8829 21.244 86.7869 21.212 86.7149 21.148C86.6429 21.084 86.5989 20.996 86.5829 20.884C86.5749 20.78 86.5949 20.672 86.6429 20.56L87.4709 18.7V19.12L85.1669 13.768C85.1189 13.648 85.1029 13.536 85.1189 13.432C85.1349 13.328 85.1829 13.244 85.2629 13.18C85.3429 13.116 85.4549 13.084 85.5989 13.084C85.7269 13.084 85.8269 13.112 85.8989 13.168C85.9709 13.224 86.0349 13.324 86.0909 13.468L88.0589 18.292H87.7349L89.7269 13.468C89.7909 13.324 89.8589 13.224 89.9309 13.168C90.0029 13.112 90.1069 13.084 90.2429 13.084C90.3709 13.084 90.4669 13.116 90.5309 13.18C90.6029 13.244 90.6429 13.328 90.6509 13.432C90.6669 13.528 90.6509 13.636 90.6029 13.756L87.5309 20.86C87.4669 21.004 87.3949 21.104 87.3149 21.16C87.2429 21.216 87.1389 21.244 87.0029 21.244ZM98.7567 19.108C97.9247 19.108 97.2127 18.932 96.6207 18.58C96.0287 18.228 95.5727 17.728 95.2527 17.08C94.9407 16.432 94.7847 15.66 94.7847 14.764C94.7847 14.092 94.8727 13.492 95.0487 12.964C95.2327 12.428 95.4927 11.976 95.8287 11.608C96.1727 11.232 96.5927 10.944 97.0887 10.744C97.5847 10.536 98.1407 10.432 98.7567 10.432C99.2527 10.432 99.7247 10.504 100.173 10.648C100.621 10.784 101.009 10.988 101.337 11.26C101.441 11.34 101.509 11.432 101.541 11.536C101.581 11.632 101.585 11.728 101.553 11.824C101.529 11.912 101.481 11.988 101.409 12.052C101.345 12.108 101.265 12.136 101.169 12.136C101.073 12.136 100.965 12.096 100.845 12.016C100.557 11.784 100.241 11.612 99.8967 11.5C99.5527 11.388 99.1807 11.332 98.7807 11.332C98.1487 11.332 97.6127 11.468 97.1727 11.74C96.7327 12.004 96.4007 12.392 96.1767 12.904C95.9527 13.416 95.8407 14.036 95.8407 14.764C95.8407 15.492 95.9527 16.116 96.1767 16.636C96.4007 17.148 96.7327 17.54 97.1727 17.812C97.6127 18.076 98.1487 18.208 98.7807 18.208C99.1727 18.208 99.5447 18.152 99.8967 18.04C100.249 17.92 100.573 17.744 100.869 17.512C100.989 17.432 101.097 17.396 101.193 17.404C101.289 17.404 101.369 17.432 101.433 17.488C101.497 17.544 101.541 17.616 101.565 17.704C101.597 17.792 101.597 17.884 101.565 17.98C101.541 18.076 101.481 18.16 101.385 18.232C101.049 18.52 100.653 18.74 100.197 18.892C99.7487 19.036 99.2687 19.108 98.7567 19.108ZM105.041 19.108C104.473 19.108 103.981 18.984 103.565 18.736C103.149 18.488 102.825 18.14 102.593 17.692C102.369 17.236 102.257 16.7 102.257 16.084C102.257 15.62 102.321 15.204 102.449 14.836C102.577 14.46 102.765 14.14 103.013 13.876C103.261 13.612 103.553 13.412 103.889 13.276C104.233 13.132 104.617 13.06 105.041 13.06C105.609 13.06 106.101 13.184 106.517 13.432C106.933 13.68 107.253 14.032 107.477 14.488C107.709 14.936 107.825 15.468 107.825 16.084C107.825 16.548 107.761 16.964 107.633 17.332C107.505 17.7 107.317 18.02 107.069 18.292C106.821 18.556 106.525 18.76 106.181 18.904C105.845 19.04 105.465 19.108 105.041 19.108ZM105.041 18.328C105.401 18.328 105.717 18.24 105.989 18.064C106.261 17.888 106.469 17.632 106.613 17.296C106.765 16.96 106.841 16.556 106.841 16.084C106.841 15.356 106.677 14.8 106.349 14.416C106.029 14.032 105.593 13.84 105.041 13.84C104.673 13.84 104.353 13.928 104.081 14.104C103.817 14.272 103.609 14.524 103.457 14.86C103.313 15.188 103.241 15.596 103.241 16.084C103.241 16.804 103.405 17.36 103.733 17.752C104.061 18.136 104.497 18.328 105.041 18.328ZM111.349 19.108C110.877 19.108 110.485 19.024 110.173 18.856C109.869 18.68 109.637 18.42 109.477 18.076C109.325 17.732 109.249 17.304 109.249 16.792V13.576C109.249 13.408 109.289 13.284 109.369 13.204C109.457 13.124 109.577 13.084 109.729 13.084C109.889 13.084 110.009 13.124 110.089 13.204C110.177 13.284 110.221 13.408 110.221 13.576V16.78C110.221 17.292 110.325 17.676 110.533 17.932C110.749 18.18 111.085 18.304 111.541 18.304C112.037 18.304 112.441 18.136 112.753 17.8C113.065 17.464 113.221 17.024 113.221 16.48V13.576C113.221 13.408 113.261 13.284 113.341 13.204C113.429 13.124 113.553 13.084 113.713 13.084C113.865 13.084 113.981 13.124 114.061 13.204C114.149 13.284 114.193 13.408 114.193 13.576V18.58C114.193 18.916 114.037 19.084 113.725 19.084C113.573 19.084 113.453 19.04 113.365 18.952C113.285 18.864 113.245 18.74 113.245 18.58V17.488L113.401 17.656C113.241 18.128 112.977 18.488 112.609 18.736C112.249 18.984 111.829 19.108 111.349 19.108ZM116.492 21.244C116.332 21.244 116.212 21.2 116.132 21.112C116.052 21.032 116.012 20.912 116.012 20.752V13.576C116.012 13.416 116.052 13.296 116.132 13.216C116.212 13.128 116.328 13.084 116.48 13.084C116.64 13.084 116.76 13.128 116.84 13.216C116.928 13.296 116.972 13.416 116.972 13.576V14.716L116.84 14.548C116.968 14.092 117.22 13.732 117.596 13.468C117.98 13.196 118.436 13.06 118.964 13.06C119.484 13.06 119.936 13.184 120.32 13.432C120.712 13.672 121.012 14.02 121.22 14.476C121.436 14.924 121.544 15.46 121.544 16.084C121.544 16.7 121.436 17.236 121.22 17.692C121.012 18.14 120.716 18.488 120.332 18.736C119.948 18.984 119.492 19.108 118.964 19.108C118.436 19.108 117.984 18.976 117.608 18.712C117.232 18.44 116.976 18.08 116.84 17.632H116.984V20.752C116.984 20.912 116.94 21.032 116.852 21.112C116.764 21.2 116.644 21.244 116.492 21.244ZM118.76 18.328C119.128 18.328 119.444 18.24 119.708 18.064C119.98 17.888 120.188 17.632 120.332 17.296C120.484 16.96 120.56 16.556 120.56 16.084C120.56 15.356 120.396 14.8 120.068 14.416C119.748 14.032 119.312 13.84 118.76 13.84C118.4 13.84 118.084 13.928 117.812 14.104C117.54 14.272 117.328 14.524 117.176 14.86C117.032 15.188 116.96 15.596 116.96 16.084C116.96 16.804 117.124 17.36 117.452 17.752C117.78 18.136 118.216 18.328 118.76 18.328ZM125.432 19.108C124.864 19.108 124.372 18.984 123.956 18.736C123.54 18.488 123.216 18.14 122.984 17.692C122.76 17.236 122.648 16.7 122.648 16.084C122.648 15.62 122.712 15.204 122.84 14.836C122.968 14.46 123.156 14.14 123.404 13.876C123.652 13.612 123.944 13.412 124.28 13.276C124.624 13.132 125.008 13.06 125.432 13.06C126 13.06 126.492 13.184 126.908 13.432C127.324 13.68 127.644 14.032 127.868 14.488C128.1 14.936 128.216 15.468 128.216 16.084C128.216 16.548 128.152 16.964 128.024 17.332C127.896 17.7 127.708 18.02 127.46 18.292C127.212 18.556 126.916 18.76 126.572 18.904C126.236 19.04 125.856 19.108 125.432 19.108ZM125.432 18.328C125.792 18.328 126.108 18.24 126.38 18.064C126.652 17.888 126.86 17.632 127.004 17.296C127.156 16.96 127.232 16.556 127.232 16.084C127.232 15.356 127.068 14.8 126.74 14.416C126.42 14.032 125.984 13.84 125.432 13.84C125.064 13.84 124.744 13.928 124.472 14.104C124.208 14.272 124 14.524 123.848 14.86C123.704 15.188 123.632 15.596 123.632 16.084C123.632 16.804 123.796 17.36 124.124 17.752C124.452 18.136 124.888 18.328 125.432 18.328ZM130.156 19.084C129.996 19.084 129.876 19.04 129.796 18.952C129.716 18.864 129.676 18.74 129.676 18.58V13.576C129.676 13.416 129.716 13.296 129.796 13.216C129.876 13.128 129.992 13.084 130.144 13.084C130.296 13.084 130.412 13.128 130.492 13.216C130.58 13.296 130.624 13.416 130.624 13.576V14.608L130.492 14.464C130.66 14 130.932 13.652 131.308 13.42C131.692 13.18 132.132 13.06 132.628 13.06C133.092 13.06 133.476 13.144 133.78 13.312C134.092 13.48 134.324 13.736 134.476 14.08C134.628 14.416 134.704 14.844 134.704 15.364V18.58C134.704 18.74 134.66 18.864 134.572 18.952C134.492 19.04 134.376 19.084 134.224 19.084C134.064 19.084 133.94 19.04 133.852 18.952C133.772 18.864 133.732 18.74 133.732 18.58V15.424C133.732 14.88 133.624 14.484 133.408 14.236C133.2 13.98 132.864 13.852 132.4 13.852C131.864 13.852 131.436 14.02 131.116 14.356C130.804 14.684 130.648 15.124 130.648 15.676V18.58C130.648 18.916 130.484 19.084 130.156 19.084ZM138.464 19.108C138.104 19.108 137.74 19.064 137.372 18.976C137.012 18.888 136.676 18.736 136.364 18.52C136.284 18.464 136.228 18.4 136.196 18.328C136.164 18.248 136.152 18.172 136.16 18.1C136.176 18.02 136.208 17.952 136.256 17.896C136.312 17.84 136.376 17.808 136.448 17.8C136.528 17.784 136.616 17.8 136.712 17.848C137.024 18.04 137.324 18.176 137.612 18.256C137.908 18.328 138.2 18.364 138.488 18.364C138.944 18.364 139.288 18.28 139.52 18.112C139.752 17.944 139.868 17.716 139.868 17.428C139.868 17.204 139.792 17.028 139.64 16.9C139.488 16.764 139.248 16.66 138.92 16.588L137.828 16.348C137.324 16.244 136.948 16.064 136.7 15.808C136.46 15.552 136.34 15.22 136.34 14.812C136.34 14.452 136.432 14.144 136.616 13.888C136.808 13.624 137.076 13.42 137.42 13.276C137.764 13.132 138.164 13.06 138.62 13.06C138.972 13.06 139.304 13.108 139.616 13.204C139.936 13.292 140.224 13.436 140.48 13.636C140.56 13.692 140.612 13.76 140.636 13.84C140.668 13.912 140.672 13.988 140.648 14.068C140.632 14.14 140.596 14.204 140.54 14.26C140.484 14.308 140.416 14.336 140.336 14.344C140.256 14.352 140.172 14.328 140.084 14.272C139.844 14.112 139.6 13.996 139.352 13.924C139.104 13.844 138.86 13.804 138.62 13.804C138.172 13.804 137.832 13.892 137.6 14.068C137.368 14.244 137.252 14.476 137.252 14.764C137.252 14.988 137.324 15.172 137.468 15.316C137.612 15.46 137.836 15.564 138.14 15.628L139.232 15.856C139.752 15.968 140.14 16.148 140.396 16.396C140.66 16.636 140.792 16.964 140.792 17.38C140.792 17.908 140.58 18.328 140.156 18.64C139.732 18.952 139.168 19.108 138.464 19.108Z" fill="white"/>
<line x1="44" y1="2.5" x2="44" y2="27.5" stroke="#DDDDDD" stroke-linecap="round" stroke-dasharray="3 3"/>
<path d="M36 15C35.9988 13.9987 35.6471 13.0223 34.9931 12.205C34.3391 11.3878 33.415 10.7698 32.3479 10.436V9.07692C32.3479 8.7913 32.2196 8.51739 31.9913 8.31542C31.763 8.11346 31.4533 8 31.1305 8H12.8699C12.547 8 12.2374 8.11346 12.009 8.31542C11.7807 8.51739 11.6525 8.7913 11.6525 9.07692V10.436C10.5846 10.7689 9.65973 11.3868 9.00553 12.2043C8.35133 13.0219 8 13.9989 8 15.0005C8 16.0022 8.35133 16.9792 9.00553 17.7968C9.65973 18.6143 10.5846 19.2322 11.6525 19.5651V20.9231C11.6525 21.2087 11.7807 21.4826 12.009 21.6846C12.2374 21.8865 12.547 22 12.8699 22H31.1305C31.4533 22 31.763 21.8865 31.9913 21.6846C32.2196 21.4826 32.3479 21.2087 32.3479 20.9231V19.5651C33.4153 19.2312 34.3395 18.6131 34.9935 17.7956C35.6474 16.9781 35.999 16.0015 36 15Z" fill="#FFEF5E"/>
<path d="M12.8699 8C12.547 8 12.2374 8.11346 12.009 8.31542C11.7807 8.51739 11.6525 8.7913 11.6525 9.07692V10.436C10.5846 10.7689 9.65973 11.3868 9.00553 12.2043C8.35133 13.0219 8 13.9989 8 15.0005C8 16.0022 8.35133 16.9792 9.00553 17.7968C9.65973 18.6143 10.5846 19.2322 11.6525 19.5651V20.9231C11.6525 21.0902 11.6965 21.2552 11.781 21.4047C11.8655 21.5543 11.9882 21.6844 12.1394 21.7846L27.7218 8H12.8699Z" fill="#FFF9BF"/>
<path d="M21.1659 11.2344C21.8617 11.2344 22.529 11.5181 23.021 12.0231C23.513 12.5281 23.7894 13.2131 23.7894 13.9273C23.7894 14.6415 23.513 15.3264 23.021 15.8314C22.529 16.3365 21.8617 16.6202 21.1659 16.6202H19.5918L22.74 19.8498" stroke="#7E7202" stroke-linecap="round" stroke-linejoin="round"/>
<path d="M19.5918 11.2344H25.8883" stroke="#7E7202" stroke-linecap="round" stroke-linejoin="round"/>
<path d="M19.5918 13.9297H25.8883" stroke="#7E7202" stroke-linecap="round" stroke-linejoin="round"/>
<defs>
<linearGradient id="paint0_linear_2054_10656" x1="0" y1="0" x2="149.185" y2="67.4281" gradientUnits="userSpaceOnUse">
<stop stop-color="#74ACAC"/>
<stop offset="1" stop-color="#5B8FBE"/>
</linearGradient>
</defs>
</svg>
