<svg width="47" height="41" viewBox="0 0 47 41" fill="none" xmlns="http://www.w3.org/2000/svg">
<g id="Gifts">
<path id="Vector" d="M23.9191 11.9624L23.1215 9.84128C12.3786 10.3376 11.1583 6.27931 11.0626 4.98259C10.8632 2.58126 13.0166 0.404073 15.8479 0.115914C19.7798 -0.292312 22.4037 3.07755 23.7436 5.41484C25.7694 2.96548 29.6933 0.76427 32.6522 0.76427C33.6716 0.706574 34.6777 1.01832 35.4873 1.64273C36.2968 2.26715 36.8559 3.16268 37.0627 4.16615C37.2434 4.78015 37.265 5.43027 37.1254 6.05498C36.9859 6.6797 36.6898 7.25833 36.2651 7.73611C33.7688 10.5617 26.567 10.0574 24.3976 9.83327L23.9191 11.9624ZM25.1952 7.48798C28.4571 7.77614 33.1707 7.64807 34.5345 6.14324C34.6968 5.9549 34.8049 5.72565 34.8471 5.48023C34.8892 5.2348 34.8639 4.98249 34.7737 4.75046C34.7024 4.26275 34.444 3.82234 34.0535 3.52324C33.6631 3.22414 33.1717 3.09004 32.6842 3.14957C30.0682 3.15758 26.3835 5.55891 25.1952 7.47997V7.48798ZM16.4859 2.48522H16.1111C14.516 2.65331 13.3675 3.82196 13.4473 4.76648C13.527 5.711 15.5129 7.62405 22.1565 7.45595C21.335 5.80704 19.3412 2.4772 16.4859 2.4772V2.48522Z" fill="#A74C4C"/>
<path id="Vector_2" d="M47.0007 8.625H0.375977V40.7718H47.0007V8.625Z" fill="#FF9898"/>
<path id="Vector_3" opacity="0.2" d="M47.0007 19.7344H0.375977V40.7707H47.0007V19.7344Z" fill="white"/>
<path id="Vector_4" opacity="0.2" d="M18.903 8.625H0.375977V40.7718H18.903V8.625Z" fill="#999999"/>
<g id="Group" opacity="0.3">
<path id="Vector_5" d="M18.8867 33.7734V35.9186L20.8567 40.7773H21.726L18.8867 33.7734Z" fill="white"/>
<path id="Vector_6" d="M18.8867 20V22.1293L26.4395 40.7802H27.3088L18.8867 20Z" fill="white"/>
<path id="Vector_7" d="M32.8913 40.7802L19.8594 8.60938H18.998L32.022 40.7802H32.8913Z" fill="white"/>
<path id="Vector_8" d="M38.4744 40.7802L25.4424 8.60938H24.5811L37.605 40.7802H38.4744Z" fill="white"/>
<path id="Vector_9" d="M44.0574 40.7802L31.0254 8.60938H30.1641L43.188 40.7802H44.0574Z" fill="white"/>
<path id="Vector_10" d="M35.7383 8.60938L46.9997 37.1781V35.0329L36.5996 8.60938H35.7383Z" fill="white"/>
<path id="Vector_11" d="M41.3223 8.60938L47.0008 23.3535V21.2083L42.1836 8.60938H41.3223Z" fill="white"/>
</g>
<g id="Group_2" opacity="0.2">
<path id="Vector_12" d="M0.407227 20.8594V22.9886L4.44282 40.7824H4.92933L0.407227 20.8594Z" fill="white"/>
<path id="Vector_13" d="M0.75815 8.60938H0.407227V9.20171L7.56124 40.7802H8.04774L0.75815 8.60938Z" fill="white"/>
<path id="Vector_14" d="M11.1745 40.7802L3.88494 8.60938H3.39844L10.688 40.7802H11.1745Z" fill="white"/>
<path id="Vector_15" d="M14.3005 40.7802L7.00295 8.60938H6.52441L13.806 40.7802H14.3005Z" fill="white"/>
<path id="Vector_16" d="M17.4185 40.7802L10.1289 8.60938H9.65039L16.932 40.7802H17.4185Z" fill="white"/>
<path id="Vector_17" d="M18.8858 34.2084L13.2471 8.60938H12.7686L18.8858 36.3536V34.2084Z" fill="white"/>
<path id="Vector_18" d="M18.8863 20.3599L16.374 8.60938H15.8955L18.8863 22.5051V20.3599Z" fill="white"/>
</g>
<path id="Vector_19" d="M35.2376 8.625H31.4492V40.7718H35.2376V8.625Z" fill="#A74C4C"/>
<path id="Vector_20" d="M9.70728 8.625H6.92383V40.7718H9.70728V8.625Z" fill="#A74C4C"/>
</g>
</svg>
