<svg width="28" height="13" viewBox="0 0 28 13" fill="none" xmlns="http://www.w3.org/2000/svg">
<g id="Group 234">
<g id="Group 233">
<path id="Vector" d="M28 6.5C27.9988 5.5702 27.6471 4.6636 26.9931 3.90467C26.3391 3.14578 25.415 2.57193 24.3479 2.262V1C24.3479 0.73478 24.2196 0.48043 23.9913 0.29289C23.763 0.10536 23.4533 0 23.1305 0L4.86987 0C4.54699 0 4.23735 0.10536 4.00905 0.29289C3.78074 0.48043 3.65249 0.73478 3.65249 1V2.262C2.58457 2.57115 1.65973 3.14487 1.00553 3.90403C0.351329 4.6632 0 5.5704 0 6.5005C0 7.4306 0.351329 8.3378 1.00553 9.097C1.65973 9.8561 2.58457 10.4299 3.65249 10.739V12C3.65249 12.2652 3.78074 12.5196 4.00905 12.7071C4.23735 12.8946 4.54699 13 4.86987 13H23.1305C23.4533 13 23.763 12.8946 23.9913 12.7071C24.2196 12.5196 24.3479 12.2652 24.3479 12V10.739C25.4153 10.429 26.3395 9.855 26.9935 9.0959C27.6474 8.3368 27.999 7.43 28 6.5Z" fill="#FFEF5E"/>
<path id="Vector_2" d="M4.86987 0C4.54699 0 4.23735 0.10536 4.00905 0.29289C3.78074 0.48043 3.65249 0.73478 3.65249 1V2.262C2.58457 2.57115 1.65973 3.14487 1.00553 3.90403C0.351329 4.6632 0 5.5704 0 6.5005C0 7.4306 0.351329 8.3378 1.00553 9.097C1.65973 9.8561 2.58457 10.4299 3.65249 10.739V12C3.65249 12.1552 3.69649 12.3084 3.78101 12.4472C3.86553 12.5861 3.98824 12.7069 4.13944 12.8L19.7218 0L4.86987 0Z" fill="#FFF9BF"/>
</g>
<g id="Group 232">
<path id="Vector_3" d="M13.1679 3C13.8637 3 14.531 3.26345 15.023 3.73239C15.515 4.20134 15.7914 4.83736 15.7914 5.50055C15.7914 6.16373 15.515 6.79976 15.023 7.2687C14.531 7.73764 13.8637 8.00109 13.1679 8.00109H11.5938L14.742 11" stroke="#7E7202" stroke-linecap="round" stroke-linejoin="round"/>
<path id="Vector_4" d="M11.5938 3H17.8902" stroke="#7E7202" stroke-linecap="round" stroke-linejoin="round"/>
<path id="Vector_5" d="M11.5938 5.5H17.8902" stroke="#7E7202" stroke-linecap="round" stroke-linejoin="round"/>
</g>
</g>
</svg>
