<svg width="30" height="30" viewBox="0 0 30 30" fill="none" xmlns="http://www.w3.org/2000/svg">
<path d="M10.9802 17.7475C11.2465 17.2771 10.9078 16.7983 10.3284 16.2056C9.41034 15.2648 8.41133 13.0826 9.34004 10.8672C9.33365 10.8548 9.52323 10.4817 9.51684 10.4693L9.89812 10.4506C10.0195 10.4341 14.2136 10.4258 18.412 10.4258C22.6104 10.4258 26.8045 10.4341 26.9259 10.4506C26.9259 10.4506 27.4904 10.8548 27.4861 10.8672C28.4148 13.0826 27.4158 15.2627 26.4977 16.2036C25.9205 16.7963 25.5818 17.275 25.8459 17.7454C26.1037 18.2034 26.8705 18.2697 26.8705 18.2697C26.8705 18.2697 26.6937 18.7381 26.2677 18.9909C25.8736 19.2251 25.388 19.279 25.0536 19.2873C25.0536 19.2873 23.7436 21.0509 20.3184 21.0509H18.412H16.5056C13.0804 21.0509 11.7705 19.2873 11.7705 19.2873C11.436 19.279 10.9504 19.2251 10.5563 18.9909C10.1303 18.7381 9.9535 18.2697 9.9535 18.2697C9.9535 18.2697 10.7225 18.2055 10.9802 17.7475Z" fill="#543930"/>
<path d="M18.417 21.0536V19.0973L12.3314 18.6289L11.7776 19.2921C11.7776 19.2921 13.0876 21.0557 16.5127 21.0557L18.417 21.0536Z" fill="url(#paint0_radial_2054_10723)"/>
<path d="M11.7897 18.4327C12.7014 17.0856 10.6799 16.582 10.6799 16.582L10.6778 16.5841C11.0292 17.0089 11.189 17.3799 10.9824 17.7467C10.7246 18.2047 9.95782 18.271 9.95782 18.271C9.95782 18.271 11.0016 19.1746 11.7897 18.4327Z" fill="url(#paint1_radial_2054_10723)"/>
<path d="M9.3365 10.8707C8.43122 13.0156 9.38337 15.2247 10.2759 16.1573C10.3973 16.2858 10.917 16.7811 11.0363 17.1769C11.0363 17.1769 13.0684 14.4186 13.6755 12.798C13.7969 12.4705 13.9098 12.1348 13.9247 11.7866C13.9353 11.5255 13.8949 11.2147 13.7394 10.9929C13.5498 10.7214 9.44514 10.6406 9.44514 10.6406C9.44514 10.6427 9.3365 10.8707 9.3365 10.8707Z" fill="url(#paint2_radial_2054_10723)"/>
<path d="M27.4868 10.8688C28.392 13.0137 27.4399 15.2229 26.5474 16.1534C26.426 16.2819 25.9062 16.7772 25.787 17.173C25.787 17.173 23.7549 14.4147 23.1478 12.7941C23.0243 12.4666 22.9135 12.1309 22.8986 11.7827C22.8879 11.5216 22.9284 11.2108 23.0839 10.989C23.2735 10.7175 23.495 10.7901 23.8166 10.7901C24.4301 10.7901 27.1161 10.6367 27.3249 10.6367C27.3227 10.6409 27.4868 10.8688 27.4868 10.8688Z" fill="url(#paint3_radial_2054_10723)"/>
<path d="M18.405 21.0536V19.0973L24.4906 18.6289L25.0444 19.2921C25.0444 19.2921 23.7344 21.0557 20.3093 21.0557L18.405 21.0536Z" fill="url(#paint4_radial_2054_10723)"/>
<path d="M25.0334 18.4327C24.1217 17.0856 26.1431 16.582 26.1431 16.582L26.1453 16.5841C25.7938 17.0089 25.6341 17.3799 25.8407 17.7467C26.0984 18.2047 26.8652 18.271 26.8652 18.271C26.8652 18.271 25.8215 19.1746 25.0334 18.4327Z" fill="url(#paint5_radial_2054_10723)"/>
<path d="M8.19045 26.8964V26.2996C8.19045 22.8429 13.2089 21.0875 18.336 21.0938C22.234 21.0979 26.1917 22.0015 27.8403 24.0614V26.8964H8.19045Z" fill="url(#paint6_linear_2054_10723)"/>
<path d="M20.3989 19.6328V21.701C20.3989 22.6357 19.6108 23.3942 18.6395 23.3942H18.288C17.3167 23.3942 16.5286 22.6357 16.5286 21.701V19.6328H20.3989Z" fill="#E59600"/>
<path d="M12.593 11.6523H24.2338C25.4884 11.6523 26.5151 12.7175 26.5151 14.0169C26.5151 15.3163 25.4884 16.3815 24.2338 16.3815H12.593C11.3384 16.3815 10.3117 15.3163 10.3117 14.0169C10.3117 12.7175 11.3384 11.6523 12.593 11.6523Z" fill="#E59600"/>
<path d="M18.4127 3.49609C22.1191 3.49609 25.5527 7.35279 25.5527 12.9047C25.5527 18.4255 22.0147 21.1548 18.4127 21.1548C14.8108 21.1548 11.2728 18.4234 11.2728 12.9026C11.2728 7.35279 14.7043 3.49609 18.4127 3.49609Z" fill="#FFCA28"/>
<path d="M21.9142 14.4459C21.3343 14.4459 20.8641 13.9727 20.8641 13.3889C20.8641 12.8052 21.3343 12.332 21.9142 12.332C22.4942 12.332 22.9644 12.8052 22.9644 13.3889C22.9644 13.9727 22.4942 14.4459 21.9142 14.4459Z" fill="#404040"/>
<path d="M14.9142 14.4459C14.3343 14.4459 13.8641 13.9727 13.8641 13.3889C13.8641 12.8052 14.3343 12.332 14.9142 12.332C15.4942 12.332 15.9644 12.8052 15.9644 13.3889C15.9644 13.9727 15.4942 14.4459 14.9142 14.4459Z" fill="#404040"/>
<path d="M20.3348 11.5261C20.5329 11.2712 20.9888 10.9023 21.8749 10.9023C22.761 10.9023 23.219 11.2733 23.4149 11.5261C23.5023 11.638 23.481 11.7686 23.4192 11.8473C23.3638 11.9199 23.1977 11.9883 23.0145 11.9282C22.8313 11.8681 22.4734 11.6878 21.8749 11.6836C21.2763 11.6878 20.9185 11.8681 20.7353 11.9282C20.5521 11.9883 20.386 11.922 20.3306 11.8473C20.2709 11.7686 20.2475 11.638 20.3348 11.5261Z" fill="#6D4C41"/>
<path d="M13.412 11.5261C13.6101 11.2712 14.0659 10.9023 14.952 10.9023C15.8381 10.9023 16.2961 11.2733 16.4921 11.5261C16.5794 11.638 16.5581 11.7686 16.4963 11.8473C16.4409 11.9199 16.2748 11.9883 16.0916 11.9282C15.9084 11.8681 15.5506 11.6878 14.952 11.6836C14.3535 11.6878 13.9956 11.8681 13.8124 11.9282C13.6293 11.9883 13.4631 11.922 13.4077 11.8473C13.346 11.7686 13.3247 11.638 13.412 11.5261Z" fill="#6D4C41"/>
<path d="M16.6213 16.9784C17.3008 17.3701 19.5246 17.3701 20.202 16.9784C20.5918 16.7525 20.9901 17.0986 20.8282 17.4426C20.6685 17.7804 19.4564 18.5658 18.4063 18.5658C17.3562 18.5658 16.1591 17.7804 15.9993 17.4426C15.8375 17.0986 16.2315 16.7525 16.6213 16.9784Z" fill="#795548"/>
<path d="M17.5922 15.3056C17.6156 15.2974 17.6369 15.2911 17.6603 15.2891H19.1684C19.1919 15.2911 19.2153 15.2974 19.2366 15.3056C19.3729 15.3595 19.4475 15.4963 19.3836 15.6434C19.3197 15.7906 19.0193 16.2009 18.4144 16.2009C17.8095 16.2009 17.5091 15.7885 17.4452 15.6434C17.3792 15.4963 17.4559 15.3595 17.5922 15.3056Z" fill="#E59600"/>
<path d="M7.09469 16.7563C6.53933 16.7675 5.7455 16.8799 5.35582 16.7943C5.01032 16.7194 4.95253 16.3945 4.59359 16.294C3.83366 16.0823 0.760168 15.2296 0.441394 15.1354C-0.00729656 15.0009 -0.11836 14.1646 0.860486 14.0623C1.83083 13.9596 3.79802 14.4675 3.79802 14.4675C3.79802 14.4675 3.709 14.1659 3.79494 13.9734C4.00982 13.5097 4.63637 13.7038 5.00983 13.8113L7.2194 14.5525C8.35367 15.0025 8.1952 16.7624 7.09469 16.7563Z" fill="url(#paint7_linear_2054_10723)"/>
<path d="M4.64955 17.0269C4.60508 16.8453 4.7079 16.6615 4.88953 16.601L7.46148 15.7633C7.64871 15.6992 7.85553 15.791 7.93047 15.971L14.4276 26.4742L8.15427 27.0956L4.64955 17.0269Z" fill="url(#paint8_linear_2054_10723)"/>
<path d="M9.87708 6.40417C10.3968 5.63946 11.562 4.61364 12.6078 4.54525C12.7761 3.56709 13.8518 2.73814 14.8934 2.41692C17.7115 1.54859 19.5455 2.52261 20.5317 3.04485C20.7362 3.15261 22.0589 3.86758 22.9834 3.3557C23.5628 3.03449 23.5521 2.16616 23.5521 2.16616C23.5521 2.16616 25.3669 2.83968 24.7471 4.71518C25.3712 4.74005 26.1891 4.99703 26.6215 5.84877C27.137 6.86424 26.9538 7.71184 26.8047 8.11803C27.3415 8.56151 28.0167 9.50444 27.5545 10.7292C27.2052 11.6514 25.8142 12.0763 25.8142 12.0763C25.9122 13.7362 25.5949 14.7579 25.4266 15.1703C25.3968 15.2429 25.2924 15.2366 25.2732 15.162C25.0623 14.3393 24.3445 11.4732 24.4148 10.9738C24.4148 10.9738 21.9993 10.5075 19.6924 8.85579C19.2238 8.52007 18.7147 8.23408 18.1737 8.02477C15.2789 6.90361 14.674 8.81642 14.674 8.81642C14.674 8.81642 12.6675 8.44132 12.0625 11.152C11.8346 12.1674 11.6812 13.7943 11.5513 14.932C11.5428 15.0128 11.4299 15.0294 11.3979 14.9548C11.1956 14.503 10.7909 13.6077 10.695 12.6938C10.6609 12.3726 9.77057 11.9478 9.38716 10.5676C8.87168 8.7273 9.50218 6.95749 9.87708 6.40417Z" fill="#543930"/>
<path d="M10.6991 12.7033C10.665 12.3821 9.77463 11.9572 9.39122 10.577C9.35075 10.4299 9.31667 10.2807 9.28471 10.1315C8.97372 8.4549 9.5318 6.91512 9.879 6.40532C10.3604 5.69864 11.3914 4.77021 12.3691 4.57956C12.4543 4.56919 12.5373 4.55883 12.6161 4.55469C12.6161 4.55469 12.5458 5.00025 12.7312 5.35462C12.9697 5.81469 13.4575 5.92453 13.4575 5.92453C10.9057 8.40724 11.0889 10.4838 10.6991 12.7033Z" fill="url(#paint9_radial_2054_10723)"/>
<path d="M19.9132 2.73349C20.1475 2.84332 20.352 2.95316 20.5309 3.04642C20.7354 3.15418 22.0581 3.86915 22.9826 3.35727C23.5513 3.04227 23.5513 2.20089 23.5513 2.17188C23.8133 2.49724 24.6057 4.82037 22.2882 4.9758C21.2892 5.04212 20.6736 4.19451 20.3072 3.47747C20.1773 3.21635 19.9707 2.83504 19.9132 2.73349Z" fill="url(#paint10_radial_2054_10723)"/>
<path d="M15.1858 2.33517C13.6266 2.7455 12.8661 3.51849 12.6127 4.54846C12.5381 4.85103 12.4487 7.67361 17.9868 4.46557C20.0466 3.27188 19.4843 2.52582 19.2436 2.44086C18.3021 2.10928 16.9324 1.8751 15.1858 2.33517Z" fill="url(#paint11_radial_2054_10723)"/>
<path d="M23.5593 2.17211C23.5614 2.17419 23.5657 2.17419 23.572 2.17833C23.7701 2.25915 25.3272 2.96169 24.7457 4.71699L23.0885 4.97604C24.5561 3.52952 23.5507 2.16797 23.5507 2.16797C23.5507 2.16797 23.5571 2.17004 23.5593 2.17211Z" fill="url(#paint12_radial_2054_10723)"/>
<path d="M23.7205 4.87442L24.745 4.71484C24.7855 4.71484 24.9218 4.72728 24.9964 4.73764C25.5736 4.81639 26.2531 5.10652 26.6216 5.84843C27.0178 6.64837 27.0072 7.33433 26.8985 7.79232C26.8666 7.94568 26.8027 8.11976 26.8027 8.11976C26.8027 8.11976 26.2957 7.6514 25.088 7.62032L23.7205 4.87442Z" fill="url(#paint13_radial_2054_10723)"/>
<path d="M26.8533 8.15991C27.3581 8.59511 28.0376 9.56705 27.5371 10.7732C27.1579 11.683 25.8138 12.0767 25.8138 12.0767C25.8138 12.0808 25.5454 12.1596 25.407 12.1596L25.0917 7.62109C25.7371 7.62109 26.357 7.80968 26.7574 8.08116C26.7532 8.08738 26.8576 8.15369 26.8533 8.15991Z" fill="url(#paint14_radial_2054_10723)"/>
<defs>
<radialGradient id="paint0_radial_2054_10723" cx="0" cy="0" r="1" gradientUnits="userSpaceOnUse" gradientTransform="translate(15.3078 18.2268) rotate(180) scale(4.98841 2.38394)">
<stop offset="0.7275" stop-color="#6D4C41" stop-opacity="0"/>
<stop offset="1" stop-color="#6D4C41"/>
</radialGradient>
<radialGradient id="paint1_radial_2054_10723" cx="0" cy="0" r="1" gradientUnits="userSpaceOnUse" gradientTransform="translate(10.3933 17.5011) rotate(24.4775) scale(1.46703 1.06911)">
<stop offset="0.6628" stop-color="#6D4C41"/>
<stop offset="1" stop-color="#6D4C41" stop-opacity="0"/>
</radialGradient>
<radialGradient id="paint2_radial_2054_10723" cx="0" cy="0" r="1" gradientUnits="userSpaceOnUse" gradientTransform="translate(14.2146 13.449) rotate(-85.6031) scale(6.30076 5.39577)">
<stop offset="0.7247" stop-color="#6D4C41" stop-opacity="0"/>
<stop offset="1" stop-color="#6D4C41"/>
</radialGradient>
<radialGradient id="paint3_radial_2054_10723" cx="0" cy="0" r="1" gradientUnits="userSpaceOnUse" gradientTransform="translate(22.6084 13.447) rotate(-94.3969) scale(6.30076 5.39577)">
<stop offset="0.7247" stop-color="#6D4C41" stop-opacity="0"/>
<stop offset="1" stop-color="#6D4C41"/>
</radialGradient>
<radialGradient id="paint4_radial_2054_10723" cx="0" cy="0" r="1" gradientUnits="userSpaceOnUse" gradientTransform="translate(21.5143 18.2268) scale(4.98841 2.38394)">
<stop offset="0.7275" stop-color="#6D4C41" stop-opacity="0"/>
<stop offset="1" stop-color="#6D4C41"/>
</radialGradient>
<radialGradient id="paint5_radial_2054_10723" cx="0" cy="0" r="1" gradientUnits="userSpaceOnUse" gradientTransform="translate(26.4291 17.5014) rotate(155.523) scale(1.46703 1.06911)">
<stop offset="0.6628" stop-color="#6D4C41"/>
<stop offset="1" stop-color="#6D4C41" stop-opacity="0"/>
</radialGradient>
<linearGradient id="paint6_linear_2054_10723" x1="18.015" y1="21.0937" x2="18.015" y2="26.8964" gradientUnits="userSpaceOnUse">
<stop stop-color="#F78C1F"/>
<stop offset="0.4801" stop-color="#F37F12"/>
<stop offset="1" stop-color="#EF6C00"/>
</linearGradient>
<linearGradient id="paint7_linear_2054_10723" x1="3.63707" y1="14.4308" x2="5.14215" y2="16.8881" gradientUnits="userSpaceOnUse">
<stop offset="0.5" stop-color="#FFCA28"/>
<stop offset="1" stop-color="#FFB300"/>
</linearGradient>
<linearGradient id="paint8_linear_2054_10723" x1="7.13936" y1="16.034" x2="9.52321" y2="25.1239" gradientUnits="userSpaceOnUse">
<stop stop-color="#F78C1F"/>
<stop offset="0.4801" stop-color="#F37F12"/>
<stop offset="1" stop-color="#EF6C00"/>
</linearGradient>
<radialGradient id="paint9_radial_2054_10723" cx="0" cy="0" r="1" gradientUnits="userSpaceOnUse" gradientTransform="translate(14.5756 10.1235) rotate(108.381) scale(7.40404 5.61655)">
<stop offset="0.6985" stop-color="#6D4C41" stop-opacity="0"/>
<stop offset="1" stop-color="#6D4C41"/>
</radialGradient>
<radialGradient id="paint10_radial_2054_10723" cx="0" cy="0" r="1" gradientUnits="userSpaceOnUse" gradientTransform="translate(21.9742 2.07267) rotate(152.448) scale(1.97817 2.30956)">
<stop offset="0.58" stop-color="#6D4C41"/>
<stop offset="1" stop-color="#6D4C41" stop-opacity="0"/>
</radialGradient>
<radialGradient id="paint11_radial_2054_10723" cx="0" cy="0" r="1" gradientUnits="userSpaceOnUse" gradientTransform="translate(17.5279 5.58844) rotate(-22.2528) scale(6.19895 3.41692)">
<stop offset="0.6985" stop-color="#6D4C41" stop-opacity="0"/>
<stop offset="1" stop-color="#6D4C41"/>
</radialGradient>
<radialGradient id="paint12_radial_2054_10723" cx="0" cy="0" r="1" gradientUnits="userSpaceOnUse" gradientTransform="translate(22.7749 3.83926) rotate(180) scale(1.82664 2.17401)">
<stop offset="0.7016" stop-color="#6D4C41" stop-opacity="0"/>
<stop offset="1" stop-color="#6D4C41"/>
</radialGradient>
<radialGradient id="paint13_radial_2054_10723" cx="0" cy="0" r="1" gradientUnits="userSpaceOnUse" gradientTransform="translate(23.0234 6.97402) rotate(-14.6676) scale(3.41981 3.12492)">
<stop offset="0.6605" stop-color="#6D4C41" stop-opacity="0"/>
<stop offset="1" stop-color="#6D4C41"/>
</radialGradient>
<radialGradient id="paint14_radial_2054_10723" cx="0" cy="0" r="1" gradientUnits="userSpaceOnUse" gradientTransform="translate(23.8373 10.193) rotate(172.376) scale(3.59508 4.91974)">
<stop offset="0.5981" stop-color="#6D4C41" stop-opacity="0"/>
<stop offset="1" stop-color="#6D4C41"/>
</radialGradient>
</defs>
</svg>
