<svg width="30" height="13" viewBox="0 0 30 13" fill="none" xmlns="http://www.w3.org/2000/svg">
<path d="M10.4756 3.45369C10.4756 3.45369 11.0166 3.59447 11.1396 3.43951C11.2626 3.28454 11.4422 2.36347 11.342 1.8571C11.2419 1.34963 10.837 1.08553 10.6857 0.925111C10.5344 0.764687 10.7717 0.530054 11.034 0.503862C11.2952 0.477671 11.6795 0.575889 11.8112 1.07135C11.9429 1.56681 11.9668 3.03899 12.227 3.39367C12.4871 3.74944 12.4915 3.76581 12.7102 3.792C12.929 3.81819 12.8681 3.89568 12.8681 3.89568C12.8681 3.89568 12.7396 3.89022 12.5111 3.95788C12.2836 4.02555 11.637 3.9426 11.4563 3.84766C11.2756 3.75272 10.9937 3.8673 10.7521 3.7549C10.5104 3.64031 10.4756 3.45369 10.4756 3.45369Z" fill="url(#paint0_linear_2054_10396)"/>
<path opacity="0.2" d="M11.1124 0.718264C11.2854 0.718264 11.5118 0.789199 11.6011 1.12751C11.6457 1.29557 11.6794 1.61205 11.7154 1.94818C11.7992 2.73611 11.8678 3.27195 12.0517 3.52404L12.0778 3.56006C12.1388 3.643 12.1878 3.71066 12.2324 3.76631C11.9537 3.76086 11.6359 3.69756 11.5575 3.65718C11.4726 3.61244 11.3823 3.59716 11.2996 3.5928C11.3039 3.58843 11.3072 3.58406 11.3115 3.57861C11.4944 3.34725 11.6609 2.34542 11.5575 1.81831C11.4639 1.33922 11.1407 1.04784 10.9469 0.873231C10.9197 0.84813 10.8947 0.826304 10.874 0.80666C10.9055 0.775012 10.973 0.732451 11.0568 0.72372C11.0743 0.718264 11.0938 0.718264 11.1124 0.718264ZM11.1124 0.5C11.0851 0.5 11.0601 0.501091 11.0351 0.504365C10.7738 0.530557 10.5365 0.76519 10.6868 0.925614C10.8381 1.08604 11.2441 1.35123 11.3431 1.8576C11.4432 2.36506 11.2626 3.28504 11.1407 3.44001C11.0971 3.49567 11.0002 3.51313 10.8936 3.51313C10.7009 3.51313 10.4756 3.4542 10.4756 3.4542C10.4756 3.4542 10.5093 3.64081 10.751 3.75431C10.8489 3.80015 10.9534 3.80888 11.0557 3.80888C11.1134 3.80888 11.17 3.80669 11.2245 3.80669C11.3105 3.80669 11.3899 3.81324 11.4563 3.84816C11.5913 3.9191 11.9842 3.98349 12.2705 3.98349C12.3685 3.98349 12.4534 3.97585 12.5111 3.95839C12.7059 3.90055 12.8278 3.89618 12.8594 3.89618H12.8681C12.8681 3.89618 12.929 3.8187 12.7102 3.79251C12.4915 3.76631 12.4871 3.74994 12.227 3.39418C11.9668 3.03841 11.9429 1.56622 11.8112 1.07185C11.6925 0.622228 11.3671 0.5 11.1124 0.5Z" fill="#424242"/>
<path d="M9.80288 4.42678C9.58844 5.03682 9.76043 5.61413 9.65375 6.26456C9.54708 6.91498 9.23686 8.28677 7.96225 9.10526C6.68763 9.92375 5.66663 10.1431 4.82415 10.2621C3.98275 10.381 3.18598 10.3406 1.76442 10.2959C0.343946 10.2511 -0.14043 11.1307 0.0369928 11.4189C0.0369928 11.4189 0.0827091 11.5618 0.201354 11.4112C0.31891 11.2606 0.662871 11.0336 1.31705 11.2399C1.92769 11.4319 2.4186 11.6546 2.70487 11.8259C3.56913 12.3443 4.42141 12.413 5.28784 12.4851C6.9739 12.6237 8.3258 11.8445 9.00611 11.4538C9.2521 11.3119 11.9167 9.95758 12.6373 7.0001C12.9943 5.53446 13.2109 4.6876 12.6928 4.15176C12.1747 3.61593 11.6609 3.8713 11.2941 3.7578C10.5409 3.52317 10.26 3.81346 10.1577 3.89094C9.94329 4.05136 9.8475 4.28054 9.80288 4.42678Z" fill="url(#paint1_linear_2054_10396)"/>
<path opacity="0.2" d="M10.769 3.99536C10.8931 3.99536 11.0368 4.02046 11.1968 4.07066C11.3426 4.1165 11.4885 4.11977 11.6126 4.11977H11.6855H11.7573C12.011 4.11977 12.2243 4.13942 12.4583 4.3806C12.8273 4.76147 12.6782 5.45336 12.3353 6.86007L12.3201 6.92337C11.729 9.34828 9.72731 10.6819 8.89462 11.1424C8.87285 11.1544 8.85544 11.1642 8.84346 11.1708C8.23391 11.5222 7.09862 12.1748 5.68468 12.1748C5.56059 12.1748 5.43651 12.1693 5.31351 12.1595C4.46884 12.0908 3.67099 12.0253 2.87095 11.5462C2.51719 11.3345 1.98601 11.1097 1.41347 10.9285C1.20883 10.8641 1.01182 10.8314 0.828952 10.8314C0.791944 10.8314 0.756024 10.8325 0.721192 10.8347C0.916031 10.7255 1.21754 10.6229 1.66055 10.6229C1.69103 10.6229 1.72151 10.6229 1.75308 10.624L2.14166 10.636C2.69897 10.6535 3.13872 10.6677 3.54146 10.6677C4.06175 10.6677 4.47102 10.6426 4.86832 10.5858C5.74999 10.4614 6.82759 10.2202 8.13595 9.37993C9.12538 8.74478 9.74364 7.71458 9.97331 6.31769C10.0234 6.01539 10.019 5.7382 10.0147 5.46973C10.0092 5.12815 10.0038 4.8335 10.1094 4.53557C10.1105 4.5312 10.1126 4.52684 10.1137 4.52247C10.1638 4.35768 10.2443 4.23327 10.3532 4.15142C10.363 4.14378 10.3739 4.13505 10.3858 4.12523C10.4544 4.07176 10.5491 3.99536 10.769 3.99536ZM10.769 3.66797C10.3978 3.66797 10.2313 3.83494 10.1562 3.8906C9.94065 4.0532 9.84487 4.28238 9.80024 4.42753C9.58581 5.03757 9.75779 5.61488 9.65112 6.26531C9.54445 6.91573 9.23423 8.28752 7.95961 9.10601C6.685 9.92449 5.664 10.1438 4.82151 10.2628C4.41007 10.3206 4.00842 10.3414 3.54037 10.3414C3.05055 10.3414 2.4878 10.3196 1.76178 10.2966C1.72695 10.2955 1.69321 10.2955 1.65947 10.2955C0.317364 10.2955 -0.138711 11.1391 0.035447 11.4196C0.035447 11.4196 0.0550397 11.4807 0.101845 11.4807C0.12688 11.4807 0.158446 11.4633 0.19872 11.412C0.282533 11.305 0.481726 11.1577 0.827864 11.1577C0.966101 11.1577 1.1272 11.1817 1.31442 11.2395C1.92506 11.4316 2.41596 11.6542 2.70223 11.8256C3.56649 12.3439 4.41877 12.4127 5.28521 12.4847C5.42018 12.4956 5.55297 12.5011 5.6825 12.5011C7.18244 12.5011 8.37759 11.8136 9.00347 11.4534C9.24947 11.3116 11.9141 9.95723 12.6347 6.99976C12.9917 5.53412 13.2083 4.68726 12.6902 4.15142C12.3647 3.8153 12.0414 3.79129 11.7552 3.79129C11.7062 3.79129 11.6583 3.79238 11.6115 3.79238C11.4961 3.79238 11.3894 3.78801 11.2926 3.75746C11.0836 3.69307 10.9116 3.66797 10.769 3.66797Z" fill="#424242"/>
<path d="M27.4756 3.45369C27.4756 3.45369 28.0166 3.59447 28.1396 3.43951C28.2626 3.28454 28.4422 2.36347 28.342 1.8571C28.2419 1.34963 27.837 1.08553 27.6857 0.925111C27.5344 0.764687 27.7717 0.530054 28.034 0.503862C28.2952 0.477671 28.6795 0.575889 28.8112 1.07135C28.9429 1.56681 28.9668 3.03899 29.227 3.39367C29.4871 3.74944 29.4915 3.76581 29.7102 3.792C29.929 3.81819 29.8681 3.89568 29.8681 3.89568C29.8681 3.89568 29.7396 3.89022 29.5111 3.95788C29.2836 4.02555 28.637 3.9426 28.4563 3.84766C28.2756 3.75272 27.9937 3.8673 27.7521 3.7549C27.5104 3.64031 27.4756 3.45369 27.4756 3.45369Z" fill="url(#paint2_linear_2054_10396)"/>
<path opacity="0.2" d="M28.1124 0.718264C28.2854 0.718264 28.5118 0.789199 28.6011 1.12751C28.6457 1.29557 28.6794 1.61205 28.7154 1.94818C28.7992 2.73611 28.8678 3.27195 29.0517 3.52404L29.0778 3.56006C29.1388 3.643 29.1878 3.71066 29.2324 3.76631C28.9537 3.76086 28.6359 3.69756 28.5575 3.65718C28.4726 3.61244 28.3823 3.59716 28.2996 3.5928C28.3039 3.58843 28.3072 3.58406 28.3115 3.57861C28.4944 3.34725 28.6609 2.34542 28.5575 1.81831C28.4639 1.33922 28.1407 1.04784 27.9469 0.873231C27.9197 0.84813 27.8947 0.826304 27.874 0.80666C27.9055 0.775012 27.973 0.732451 28.0568 0.72372C28.0743 0.718264 28.0938 0.718264 28.1124 0.718264ZM28.1124 0.5C28.0851 0.5 28.0601 0.501091 28.0351 0.504365C27.7738 0.530557 27.5365 0.76519 27.6868 0.925614C27.8381 1.08604 28.2441 1.35123 28.3431 1.8576C28.4432 2.36506 28.2626 3.28504 28.1407 3.44001C28.0971 3.49567 28.0002 3.51313 27.8936 3.51313C27.7009 3.51313 27.4756 3.4542 27.4756 3.4542C27.4756 3.4542 27.5093 3.64081 27.751 3.75431C27.8489 3.80015 27.9534 3.80888 28.0557 3.80888C28.1134 3.80888 28.17 3.80669 28.2245 3.80669C28.3105 3.80669 28.3899 3.81324 28.4563 3.84816C28.5913 3.9191 28.9842 3.98349 29.2705 3.98349C29.3685 3.98349 29.4534 3.97585 29.5111 3.95839C29.7059 3.90055 29.8278 3.89618 29.8594 3.89618H29.8681C29.8681 3.89618 29.929 3.8187 29.7102 3.79251C29.4915 3.76631 29.4871 3.74994 29.227 3.39418C28.9668 3.03841 28.9429 1.56622 28.8112 1.07185C28.6925 0.622228 28.3671 0.5 28.1124 0.5Z" fill="#424242"/>
<path d="M26.8029 4.42678C26.5884 5.03682 26.7604 5.61413 26.6538 6.26456C26.5471 6.91498 26.2369 8.28677 24.9622 9.10526C23.6876 9.92375 22.6666 10.1431 21.8241 10.2621C20.9827 10.381 20.186 10.3406 18.7644 10.2959C17.3439 10.2511 16.8596 11.1307 17.037 11.4189C17.037 11.4189 17.0827 11.5618 17.2014 11.4112C17.3189 11.2606 17.6629 11.0336 18.3171 11.2399C18.9277 11.4319 19.4186 11.6546 19.7049 11.8259C20.5691 12.3443 21.4214 12.413 22.2878 12.4851C23.9739 12.6237 25.3258 11.8445 26.0061 11.4538C26.2521 11.3119 28.9167 9.95758 29.6373 7.0001C29.9943 5.53446 30.2109 4.6876 29.6928 4.15176C29.1747 3.61593 28.6609 3.8713 28.2941 3.7578C27.5409 3.52317 27.26 3.81346 27.1577 3.89094C26.9433 4.05136 26.8475 4.28054 26.8029 4.42678Z" fill="url(#paint3_linear_2054_10396)"/>
<path opacity="0.2" d="M27.769 3.99536C27.8931 3.99536 28.0368 4.02046 28.1968 4.07066C28.3426 4.1165 28.4885 4.11977 28.6126 4.11977H28.6855H28.7573C29.011 4.11977 29.2243 4.13942 29.4583 4.3806C29.8273 4.76147 29.6782 5.45336 29.3353 6.86007L29.3201 6.92337C28.729 9.34828 26.7273 10.6819 25.8946 11.1424C25.8729 11.1544 25.8554 11.1642 25.8435 11.1708C25.2339 11.5222 24.0986 12.1748 22.6847 12.1748C22.5606 12.1748 22.4365 12.1693 22.3135 12.1595C21.4688 12.0908 20.671 12.0253 19.8709 11.5462C19.5172 11.3345 18.986 11.1097 18.4135 10.9285C18.2088 10.8641 18.0118 10.8314 17.829 10.8314C17.7919 10.8314 17.756 10.8325 17.7212 10.8347C17.916 10.7255 18.2175 10.6229 18.6606 10.6229C18.691 10.6229 18.7215 10.6229 18.7531 10.624L19.1417 10.636C19.699 10.6535 20.1387 10.6677 20.5415 10.6677C21.0618 10.6677 21.471 10.6426 21.8683 10.5858C22.75 10.4614 23.8276 10.2202 25.1359 9.37993C26.1254 8.74478 26.7436 7.71458 26.9733 6.31769C27.0234 6.01539 27.019 5.7382 27.0147 5.46973C27.0092 5.12815 27.0038 4.8335 27.1094 4.53557C27.1105 4.5312 27.1126 4.52684 27.1137 4.52247C27.1638 4.35768 27.2443 4.23327 27.3532 4.15142C27.363 4.14378 27.3739 4.13505 27.3858 4.12523C27.4544 4.07176 27.5491 3.99536 27.769 3.99536ZM27.769 3.66797C27.3978 3.66797 27.2313 3.83494 27.1562 3.8906C26.9407 4.0532 26.8449 4.28238 26.8002 4.42753C26.5858 5.03757 26.7578 5.61488 26.6511 6.26531C26.5444 6.91573 26.2342 8.28752 24.9596 9.10601C23.685 9.92449 22.664 10.1438 21.8215 10.2628C21.4101 10.3206 21.0084 10.3414 20.5404 10.3414C20.0505 10.3414 19.4878 10.3196 18.7618 10.2966C18.727 10.2955 18.6932 10.2955 18.6595 10.2955C17.3174 10.2955 16.8613 11.1391 17.0354 11.4196C17.0354 11.4196 17.055 11.4807 17.1018 11.4807C17.1269 11.4807 17.1584 11.4633 17.1987 11.412C17.2825 11.305 17.4817 11.1577 17.8279 11.1577C17.9661 11.1577 18.1272 11.1817 18.3144 11.2395C18.9251 11.4316 19.416 11.6542 19.7022 11.8256C20.5665 12.3439 21.4188 12.4127 22.2852 12.4847C22.4202 12.4956 22.553 12.5011 22.6825 12.5011C24.1824 12.5011 25.3776 11.8136 26.0035 11.4534C26.2495 11.3116 28.9141 9.95723 29.6347 6.99976C29.9917 5.53412 30.2083 4.68726 29.6902 4.15142C29.3647 3.8153 29.0414 3.79129 28.7552 3.79129C28.7062 3.79129 28.6583 3.79238 28.6115 3.79238C28.4961 3.79238 28.3894 3.78801 28.2926 3.75746C28.0836 3.69307 27.9116 3.66797 27.769 3.66797Z" fill="#424242"/>
<defs>
<linearGradient id="paint0_linear_2054_10396" x1="10.3569" y1="1.80763" x2="13.6745" y2="3.39867" gradientUnits="userSpaceOnUse">
<stop offset="0.0049069" stop-color="#A0BD46"/>
<stop offset="0.424" stop-color="#7F972D"/>
<stop offset="0.9261" stop-color="#52650B"/>
</linearGradient>
<linearGradient id="paint1_linear_2054_10396" x1="5.11698" y1="6.16714" x2="9.8329" y2="12.2466" gradientUnits="userSpaceOnUse">
<stop offset="0.2808" stop-color="#FF1744"/>
<stop offset="0.6543" stop-color="#B20500"/>
<stop offset="1" stop-color="#EB382F"/>
</linearGradient>
<linearGradient id="paint2_linear_2054_10396" x1="27.3569" y1="1.80763" x2="30.6745" y2="3.39867" gradientUnits="userSpaceOnUse">
<stop offset="0.0049069" stop-color="#A0BD46"/>
<stop offset="0.424" stop-color="#7F972D"/>
<stop offset="0.9261" stop-color="#52650B"/>
</linearGradient>
<linearGradient id="paint3_linear_2054_10396" x1="22.117" y1="6.16714" x2="26.8329" y2="12.2466" gradientUnits="userSpaceOnUse">
<stop offset="0.2808" stop-color="#FF1744"/>
<stop offset="0.6543" stop-color="#B20500"/>
<stop offset="1" stop-color="#EB382F"/>
</linearGradient>
</defs>
</svg>
