<svg width="403" height="123" viewBox="0 0 403 123" fill="none" xmlns="http://www.w3.org/2000/svg">
<path fill-rule="evenodd" clip-rule="evenodd" d="M12 123C5.37258 123 0 117.627 0 111L0 12C0 5.37258 5.37259 0 12 0H69.6668C73.5469 0 77.0537 2.38006 80.7193 3.65253C81.747 4.00929 82.8508 4.20313 84 4.20313C85.1492 4.20313 86.253 4.00929 87.2807 3.65253C90.9463 2.38006 94.4531 0 98.3332 0L391 0C397.627 0 403 5.37259 403 12V111C403 117.627 397.627 123 391 123L99.2752 123C95.0928 123 91.3614 120.244 87.4332 118.808C86.3625 118.417 85.2062 118.203 84 118.203C82.7938 118.203 81.6375 118.417 80.5668 118.808C76.6386 120.244 72.9072 123 68.7248 123H12Z" fill="url(#paint0_linear_2910_11451)"/>
<defs>
<linearGradient id="paint0_linear_2910_11451" x1="-1.58479e-10" y1="123" x2="56.8736" y2="-83.3909" gradientUnits="userSpaceOnUse">
<stop stop-color="#FFE2E2"/>
<stop offset="1" stop-color="#E3E1FF"/>
</linearGradient>
</defs>
</svg>
