<svg width="106" height="61" viewBox="0 0 106 61" fill="none" xmlns="http://www.w3.org/2000/svg">
<g id="discount/pana">
<g id="Label">
<path id="Vector" d="M91.4616 25.9534L73.2849 5.45756C72.569 4.65061 71.6926 4.00331 70.712 3.55742C69.7315 3.11153 68.6687 2.87698 67.5922 2.8689L7.7511 2.43381C6.73431 2.42621 5.72612 2.62097 4.78479 3.00685C3.84347 3.39272 2.98768 3.96205 2.26691 4.68191C1.54614 5.40177 0.974699 6.25789 0.585602 7.20078C0.196504 8.14366 -0.00252618 9.15459 2.42034e-05 10.1752L0.100899 52.7047C0.103041 53.7202 0.304715 54.7253 0.694372 55.6624C1.08403 56.5996 1.65402 57.4504 2.37171 58.1661C3.0894 58.8819 3.9407 59.4486 4.87687 59.8337C5.81304 60.2188 6.8157 60.4148 7.82744 60.4105L67.4614 60.1587C68.5627 60.156 69.6507 59.9159 70.6516 59.4547C71.6526 58.9935 72.5431 58.3218 73.2631 57.4852L91.5488 36.1411C92.7677 34.7211 93.4308 32.905 93.4148 31.0308C93.3988 29.1566 92.7046 27.3521 91.4616 25.9534ZM81.3468 33.3417C80.8742 34.509 80.0673 35.5095 79.0282 36.2165C77.9891 36.9235 76.7645 37.3054 75.5091 37.3138C74.2538 37.3222 73.0242 36.9568 71.9758 36.2638C70.9274 35.5708 70.1072 34.5813 69.6191 33.4205C69.131 32.2596 68.9969 30.9796 69.2336 29.7422C69.4703 28.5048 70.0674 27.3657 70.9491 26.4689C71.8309 25.572 72.9579 24.9578 74.1875 24.7039C75.4171 24.4499 76.6941 24.5676 77.857 25.0422C79.4136 25.6785 80.6551 26.9084 81.3093 28.4623C81.9635 30.0161 81.977 31.767 81.3468 33.3308V33.3417Z" fill="url(#paint0_linear_4154_3170)"/>
<g id="Group" opacity="0.4">
<path id="Vector_2" d="M91.4616 25.9573L73.2849 5.46146C72.569 4.65452 71.6926 4.00721 70.712 3.56132C69.7315 3.11544 68.6687 2.88089 67.5922 2.8728L7.7511 2.43771C6.73431 2.43012 5.72612 2.62488 4.78479 3.01075C3.84347 3.39663 2.98768 3.96595 2.26691 4.68582C1.54614 5.40568 0.974699 6.2618 0.585602 7.20468C0.196504 8.14756 -0.00252618 9.1585 2.42034e-05 10.1791L0.100899 52.7086C0.103041 53.7241 0.304715 54.7292 0.694372 55.6663C1.08403 56.6035 1.65402 57.4543 2.37171 58.17C3.0894 58.8858 3.9407 59.4525 4.87687 59.8376C5.81304 60.2227 6.8157 60.4187 7.82744 60.4144L67.4614 60.1626C68.5627 60.1599 69.6507 59.9198 70.6516 59.4586C71.6526 58.9974 72.5431 58.3257 73.2631 57.4891L91.5488 36.145C92.7677 34.7251 93.4308 32.9089 93.4148 31.0347C93.3988 29.1605 92.7046 27.356 91.4616 25.9573ZM81.3468 33.3456C80.8742 34.5129 80.0673 35.5134 79.0282 36.2204C77.9891 36.9274 76.7645 37.3093 75.5091 37.3177C74.2538 37.3261 73.0242 36.9607 71.9758 36.2677C70.9274 35.5747 70.1072 34.5852 69.6191 33.4244C69.131 32.2635 68.9969 30.9835 69.2336 29.7461C69.4703 28.5087 70.0674 27.3696 70.9491 26.4728C71.8309 25.5759 72.9579 24.9617 74.1875 24.7078C75.4171 24.4538 76.6941 24.5716 77.857 25.0461C79.4136 25.6824 80.6551 26.9123 81.3093 28.4662C81.9635 30.02 81.977 31.7709 81.3468 33.3347V33.3456Z" fill="#222222"/>
</g>
<path id="Vector_3" d="M94.6114 25.9534L76.4265 5.45758C75.7104 4.6509 74.8339 4.00378 73.8534 3.55791C72.8729 3.11205 71.8102 2.87734 70.7338 2.86892L10.8927 2.43383C9.87582 2.42586 8.86746 2.62038 7.92597 3.00613C6.98448 3.39187 6.12854 3.96118 5.4077 4.68111C4.68687 5.40105 4.11543 6.25731 3.72646 7.20036C3.33749 8.14341 3.13872 9.15451 3.14163 10.1752L3.23978 52.7047C3.24226 53.7224 3.44508 54.7296 3.83656 55.6684C4.22805 56.6072 4.8005 57.459 5.52101 58.1751C6.24152 58.8911 7.09591 59.4572 8.03507 59.8409C8.97422 60.2245 9.97965 60.4181 10.9936 60.4105L70.6248 60.1587C71.7261 60.1557 72.8139 59.9154 73.8148 59.4542C74.8157 58.993 75.7063 58.3216 76.4265 57.4853L94.7095 36.1411C95.9274 34.7201 96.589 32.9031 96.571 31.0287C96.5529 29.1544 95.8564 27.3505 94.6114 25.9534ZM84.4993 33.3418C84.0267 34.5091 83.2198 35.5095 82.1807 36.2165C81.1416 36.9235 79.917 37.3054 78.6617 37.3138C77.4063 37.3222 76.1767 36.9569 75.1283 36.2638C74.0799 35.5708 73.2597 34.5813 72.7716 33.4205C72.2835 32.2596 72.1494 30.9796 72.3861 29.7422C72.6228 28.5048 73.2199 27.3657 74.1017 26.4689C74.9834 25.5721 76.1104 24.9578 77.34 24.7039C78.5696 24.4499 79.8466 24.5677 81.0095 25.0422C82.5661 25.6785 83.8076 26.9085 84.4618 28.4623C85.1161 30.0162 85.1295 31.767 84.4993 33.3308V33.3418Z" fill="url(#paint1_linear_4154_3170)"/>
<path id="Vector_4" d="M23.0543 24.528C23.1006 19.3727 26.2659 16.1246 30.7045 16.1684C35.143 16.2122 38.2047 19.4712 38.1584 24.6675C38.112 29.8639 34.9849 33.0709 30.5491 33.0298C26.1133 32.9888 23.0052 29.6833 23.0543 24.528ZM33.8044 24.6292C33.8344 21.3456 32.5884 19.7667 30.6718 19.7503C28.8015 19.7311 27.4792 21.3346 27.4492 24.569C27.4192 27.8034 28.7115 29.4288 30.5818 29.4479C32.4984 29.4643 33.7744 27.9046 33.8044 24.6292ZM48.8512 16.6938L54.0313 16.743L32.9428 47.1166L27.7627 47.0673L48.8512 16.6938ZM43.6384 39.151C43.6875 33.9957 46.8501 30.7477 51.2477 30.7887C55.6862 30.8325 58.7888 34.138 58.7425 39.2906C58.6961 44.4431 55.5308 47.6803 51.0896 47.6337C46.7083 47.5982 43.592 44.2926 43.6384 39.151ZM54.3449 39.2495C54.3748 36.0179 53.1289 34.3898 51.2122 34.3734C49.342 34.3542 48.0224 35.9139 47.9924 39.1921C47.9624 42.4702 49.252 44.0519 51.1223 44.071C53.0389 44.0765 54.3149 42.4702 54.3421 39.2359L54.3449 39.2495Z" fill="white"/>
<path id="Vector_5" d="M92.6205 38.5989C92.8376 38.7149 93.0383 38.8594 93.2175 39.0285C93.5911 39.3267 94.1363 39.7755 94.8261 40.3693C95.5159 40.9631 96.3556 41.6964 97.2989 42.5802C98.2422 43.4641 99.3001 44.4957 100.393 45.7188C101.595 47.0445 102.683 48.4697 103.646 49.9793L104.033 50.6005L104.398 51.249C104.654 51.6922 104.885 52.149 105.091 52.6172C105.549 53.6101 105.814 54.682 105.871 55.7749C105.888 56.359 105.803 56.9416 105.62 57.4961C105.428 58.0694 105.122 58.5974 104.72 59.0476C103.895 59.9603 102.803 60.5869 101.601 60.8372C100.382 61.0791 99.1244 61.0493 97.9178 60.7496C96.7059 60.4555 95.532 60.0212 94.4199 59.4553C92.2341 58.3366 90.2516 56.8565 88.5554 55.0772C87.7468 54.2436 86.9902 53.3608 86.2898 52.4339C85.6064 51.5345 84.9557 50.6397 84.3378 49.7495C81.884 46.1922 79.9756 42.7718 78.7759 39.7125C78.476 38.9491 78.217 38.2158 77.9935 37.5098C77.8844 37.1568 77.7808 36.812 77.6963 36.47C77.6033 36.1392 77.5368 35.8016 77.4973 35.4603C77.4024 34.8127 77.5638 34.1537 77.9471 33.6242C78.2773 33.1992 78.7278 32.8844 79.2394 32.7212C79.4507 32.6511 79.6679 32.6007 79.8883 32.5707C80.0821 32.55 80.2772 32.5454 80.4718 32.557C80.7767 32.5716 81.0771 32.6373 81.3605 32.7513C81.5328 32.8236 81.6929 32.9224 81.8349 33.0441C81.9276 33.1289 81.9685 33.1754 81.9603 33.1863C81.9522 33.1973 81.8949 33.1672 81.7913 33.1043C81.641 33.0123 81.4798 32.9397 81.3115 32.8881C81.0375 32.805 80.7525 32.7644 80.4663 32.7677C80.2837 32.7695 80.1015 32.7841 79.921 32.8115C79.7193 32.8507 79.5213 32.9075 79.3294 32.9811C78.8838 33.1455 78.4967 33.4388 78.217 33.8239C77.9052 34.2895 77.7877 34.8594 77.8899 35.411C77.935 35.7328 78.0061 36.0503 78.1025 36.3605C78.1925 36.6889 78.3043 37.0227 78.4188 37.3675C78.6569 38.0571 78.9295 38.7758 79.2367 39.5237C80.4718 42.5064 82.402 45.8748 84.8667 49.3746C85.4846 50.2502 86.1362 51.1323 86.8215 52.0207C87.5111 52.9227 88.255 53.7817 89.0489 54.5928C90.6961 56.3108 92.6162 57.7422 94.7307 58.8287C95.7974 59.3703 96.9226 59.7872 98.0841 60.071C99.1907 60.3493 100.344 60.382 101.465 60.1668C102.525 59.9499 103.49 59.4043 104.224 58.6071C104.904 57.8349 105.264 56.8299 105.227 55.7996C105.175 54.7856 104.931 53.7909 104.507 52.8689C104.314 52.4161 104.096 51.9741 103.856 51.5445L103.515 50.9124L103.144 50.294C102.217 48.7976 101.17 47.38 100.012 46.0554C98.9593 44.8295 97.9369 43.7788 97.0126 42.8703C96.0884 41.9618 95.2896 41.2011 94.6271 40.58L93.1221 39.1461C92.933 38.9852 92.7645 38.8014 92.6205 38.5989Z" fill="#222222"/>
<path id="Vector_6" d="M66.6084 12.127L68.3805 11.1036L69.3211 9.28125L70.3435 11.0598L72.1593 12.0066L70.3871 13.0299L69.4438 14.8523L68.4242 13.0737L66.6084 12.127Z" fill="white"/>
<path id="Vector_7" d="M87.2705 6.00834L90.9854 3.86311L92.9572 0.0429688L95.1004 3.77133L98.9067 5.75596L95.1918 7.90121L93.2143 11.7213L91.0769 7.99299L87.2705 6.00834Z" fill="url(#paint2_linear_4154_3170)"/>
<path id="Vector_8" d="M95.582 14.7216L97.9702 13.3425L99.2377 10.8867L100.616 13.2835L103.062 14.5594L100.674 15.9384L99.4031 18.3942L98.029 15.9974L95.582 14.7216Z" fill="url(#paint3_linear_4154_3170)"/>
<path id="Vector_9" d="M57.0273 9.30069L57.649 8.94223L57.9789 8.30469L58.336 8.92582L58.9712 9.25691L58.3496 9.61536L58.0197 10.2529L57.6626 9.63178L57.0273 9.30069Z" fill="white"/>
<path id="Vector_10" d="M63.1455 21.8716L64.3451 21.1794L64.9831 19.9453L65.6729 21.1493L66.9025 21.7896L65.7028 22.4818L65.0649 23.7159L64.3751 22.5119L63.1455 21.8716Z" fill="white"/>
</g>
</g>
<defs>
<linearGradient id="paint0_linear_4154_3170" x1="3.47998e-07" y1="31.4221" x2="93.4151" y2="31.4221" gradientUnits="userSpaceOnUse">
<stop stop-color="#FF6666"/>
<stop offset="1" stop-color="#FF9688"/>
</linearGradient>
<linearGradient id="paint1_linear_4154_3170" x1="3.1416" y1="31.4222" x2="96.5713" y2="31.4222" gradientUnits="userSpaceOnUse">
<stop stop-color="#FF6666"/>
<stop offset="1" stop-color="#FF9688"/>
</linearGradient>
<linearGradient id="paint2_linear_4154_3170" x1="87.2705" y1="5.88216" x2="98.9067" y2="5.88216" gradientUnits="userSpaceOnUse">
<stop stop-color="#FF6666"/>
<stop offset="1" stop-color="#FF9688"/>
</linearGradient>
<linearGradient id="paint3_linear_4154_3170" x1="95.582" y1="14.6405" x2="103.062" y2="14.6405" gradientUnits="userSpaceOnUse">
<stop stop-color="#FF6666"/>
<stop offset="1" stop-color="#FF9688"/>
</linearGradient>
</defs>
</svg>
