<svg width="85" height="84" viewBox="0 0 85 84" fill="none" xmlns="http://www.w3.org/2000/svg">
<path d="M30.0898 43.3516H2.23562C1.55321 43.3516 1 43.9048 1 44.5872C1 45.2696 1.55321 45.8237 2.23562 45.8237H30.0898C30.7723 45.8237 31.3254 45.2705 31.3254 44.5881C31.3254 43.9057 30.7723 43.3516 30.0898 43.3516Z" stroke="#222222" stroke-width="0.460083" stroke-miterlimit="10"/>
<path d="M17.5028 59.5835C16.7828 58.9293 16.1159 58.2633 15.5049 57.5938" stroke="#DDDDDD" stroke-width="0.460083" stroke-miterlimit="10"/>
<path d="M77.4958 40.1235C77.5012 40.5735 77.4958 41.0324 77.4742 41.4923C77.3464 44.3371 76.7371 47.2772 75.2144 49.6729C74.9372 50.1149 74.628 50.536 74.2892 50.9328C71.0494 50.5053 70.5662 47.2007 66.8197 45.3324C62.3317 43.0888 54.9827 43.8925 54.9827 43.8925L58.6032 40.5528C58.4097 30.4949 51.0257 31.1123 51.0257 31.1123L50.6504 32.0311C50.9354 31.199 51.2237 30.4229 51.5152 29.703L51.5314 29.6652C54.9512 21.1715 58.4943 20.1185 61.2508 18.8919C61.9093 18.7355 62.5837 18.6551 63.2604 18.6525C70.3079 18.6147 74.444 25.7918 76.2529 31.5695C76.7029 33.0094 77.395 36.089 77.4877 39.552C77.4895 39.7374 77.4958 39.9309 77.4958 40.1235Z" fill="#222222"/>
<path d="M81.4549 77.8221C80.9077 78.5753 80.0051 78.9857 79.0746 78.9857H68.3832C67.9724 78.9916 67.5648 78.9114 67.1868 78.7504C66.8088 78.5893 66.4687 78.351 66.1882 78.0507C66.1503 78.0121 66.1147 77.9713 66.082 77.9283C65.747 77.5132 65.5375 77.0111 65.4782 76.4812C65.4242 75.9943 65.786 75.5614 66.2755 75.5812C66.461 75.5883 66.6377 75.6626 66.7727 75.7899C66.9077 75.9173 66.992 76.0893 67.0099 76.2742C67.0099 76.3129 67.018 76.3507 67.0234 76.3885C67.063 76.6081 67.1596 76.8135 67.3033 76.9842C67.4304 77.1345 67.5901 77.2539 67.7702 77.3336C67.9502 77.4132 68.146 77.451 68.3427 77.4441H79.1205C79.3134 77.4473 79.5047 77.4089 79.6814 77.3312C79.858 77.2535 80.0157 77.1385 80.1437 76.9941C80.2879 76.8271 80.3864 76.6255 80.4293 76.4091C80.4723 76.1926 80.4581 75.9687 80.3885 75.7594L75.5747 61.4457C75.5353 61.3359 75.4888 61.2288 75.4352 61.1253C75.1526 60.5284 74.7047 60.025 74.1447 59.675C73.5846 59.3251 72.9358 59.1431 72.2755 59.1508C70.2488 59.1751 67.6759 59.1805 67.4338 59.1805C62.0404 59.1607 59.5862 59.1607 58.2363 59.1967C58.3289 58.865 58.4964 58.5589 58.7259 58.3022C58.7259 58.3022 58.7313 58.2968 58.7313 58.2941C59.0605 57.9432 59.5111 57.7311 59.9912 57.701C61.9909 57.5372 63.9708 57.2384 65.894 56.7165C69.2877 55.7967 72.5248 54.2191 74.7737 51.6821C75.8684 50.4541 76.6959 49.0118 77.2036 47.447C77.5976 46.2044 77.8459 44.9203 77.9433 43.6204C77.9781 43.21 77.9998 42.7966 78.0081 42.3803V42.3614C78.0081 42.266 78.0135 42.1679 78.0135 42.0725C78.0258 41.4794 77.9987 40.8863 77.9325 40.2969C78.5202 40.3015 79.083 40.5345 79.502 40.9466C79.5387 41.0436 79.5659 41.144 79.583 41.2463C79.5993 41.3432 79.6074 41.4413 79.6073 41.5397V53.1806C79.6083 53.9757 79.4514 54.763 79.1457 55.4969C78.8399 56.2309 78.3915 56.8969 77.8263 57.4562C76.8904 58.3832 76.624 59.7898 77.0677 61.0272L81.8518 75.2626C81.9963 75.6897 82.0357 76.1453 81.9666 76.5909C81.8976 77.0364 81.722 77.4588 81.4549 77.8221Z" fill="url(#paint0_linear_2054_10612)"/>
<path d="M15.54 77.4613V46H17.4652V77.4743L15.54 77.4613Z" fill="#222222"/>
<path d="M54.9844 43.8867C56.4144 43.7346 58.0685 43.5546 59.6569 43.5906" stroke="#222222" stroke-width="0.460083" stroke-miterlimit="10"/>
<path d="M47.1921 45.3281C44.6597 45.9671 42.1956 46.8895 40.0934 48.4231C36.5656 50.9933 34.9529 55.7882 36.3946 59.9424C36.3946 59.9478 42.0643 76.3026 42.0643 76.3026H40.5721C40.2506 76.3025 39.9322 76.366 39.6353 76.4896C39.3384 76.6132 39.069 76.7943 38.8425 77.0226C38.3988 77.4635 38.1801 78.1988 38.1801 78.8738H51.61L46.5064 62.1797C46.3791 61.7682 46.3505 61.3325 46.4229 60.9079C46.4952 60.4833 46.6665 60.0816 46.9229 59.7355C47.1793 59.3894 47.5135 59.1085 47.8987 58.9156C48.2838 58.7226 48.7089 58.623 49.1396 58.6249C52.0473 58.7068 54.7481 58.8184 57.6891 58.6906" stroke="#222222" stroke-width="0.460083" stroke-miterlimit="10"/>
<path d="M77.5157 41.627V41.609C77.3852 38.0992 77.2088 34.6362 76.2485 31.5656C74.4397 25.7879 70.3035 18.6108 63.256 18.6486C62.5793 18.6512 61.905 18.7316 61.2465 18.888C56.6009 19.9922 53.3746 24.752 51.5271 29.6613L51.5109 29.6991C51.3345 30.17 51.1713 30.6398 51.0213 31.1084C50.9196 31.4237 50.7941 31.7309 50.646 32.0272C50.08 33.1677 49.1829 34.1109 48.0721 34.7331C46.9612 35.3553 45.6884 35.6277 44.4202 35.5145C35.8887 34.7388 24.6448 34.296 21.1035 40.2906" stroke="#222222" stroke-width="0.460083" stroke-miterlimit="10"/>
<path d="M63.5551 35.1016C62.3132 36.6009 61.0056 38.0489 59.6538 39.4492C56.8865 42.3183 54.499 45.3655 50.2044 45.5689C46.7783 45.7336 43.5169 44.4187 40.2771 43.5071C36.8114 42.5324 35.0574 41.7531 31.8275 40.7685C30.8974 40.4861 27.6551 40.0181 26.6831 40.002H25.6953" stroke="#222222" stroke-width="0.460083" stroke-miterlimit="10"/>
<path d="M50.8737 76.515C51.1833 76.3762 51.519 76.305 51.8583 76.3062H53.354C53.354 76.3062 50.2276 70.2289 47.7275 66.1836" stroke="#222222" stroke-width="0.460083" stroke-miterlimit="10"/>
<path d="M52.9271 58.7031L63.3845 78.9817H51.5556H49.4102" stroke="#222222" stroke-width="0.460083" stroke-miterlimit="10"/>
<path d="M81.455 77.8209C80.9079 78.5741 80.0052 78.9845 79.0747 78.9845H68.3833C67.4969 78.9845 66.632 78.6173 66.0795 77.9244C65.7444 77.5093 65.5349 77.0072 65.4756 76.4772C65.4216 75.9904 65.7834 75.5575 66.2729 75.5773C66.4584 75.5844 66.6351 75.6586 66.7701 75.786C66.9051 75.9134 66.9894 76.0854 67.0073 76.2702C67.0292 76.5316 67.1317 76.7797 67.3007 76.9803C67.4297 77.1283 67.5897 77.2462 67.7693 77.3256C67.9489 77.4051 68.1438 77.4441 68.3401 77.4402H79.1206C79.3135 77.4434 79.5048 77.405 79.6815 77.3272C79.8581 77.2496 80.0158 77.1346 80.1438 76.9902C80.2881 76.8232 80.3865 76.6216 80.4294 76.4052C80.4723 76.1887 80.4582 75.9648 80.3886 75.7555L75.5748 61.4445C75.331 60.7668 74.8825 60.1818 74.2913 59.7707C73.7001 59.3595 72.9956 59.1424 72.2756 59.1496C70.2489 59.1739 67.676 59.1793 67.4339 59.1793C61.4285 59.1604 59.0644 59.1604 57.8117 59.2063C57.7921 59.2061 57.7729 59.2022 57.7549 59.1946C57.7369 59.187 57.7206 59.176 57.7069 59.1621C57.6932 59.1483 57.6823 59.1319 57.6751 59.1138C57.6677 59.0957 57.6639 59.0764 57.6641 59.0569C57.6623 58.5013 57.8661 57.9646 58.2364 57.5504C58.2379 57.5493 58.2391 57.548 58.24 57.5464C58.2409 57.5449 58.2416 57.5431 58.2418 57.5414C58.5715 57.1913 59.0218 56.9796 59.5018 56.9492C61.5014 56.7854 63.4813 56.4867 65.4045 55.9647C68.7982 55.0449 72.0353 53.4673 74.2843 50.9304C75.379 49.7023 76.2065 48.26 76.7141 46.6952C77.107 45.4531 77.3543 44.1696 77.4512 42.8704C77.4865 42.4588 77.5081 42.0454 77.516 41.6303V41.6105C77.516 41.516 77.5214 41.4179 77.5214 41.3225C77.5336 40.7294 77.5065 40.1363 77.4404 39.5469C78.4195 39.5415 79.4067 40.2534 79.5777 41.2469C79.594 41.3438 79.6021 41.4419 79.602 41.5403V53.1793C79.6029 53.9744 79.4461 54.7618 79.1403 55.4957C78.8346 56.2297 78.3861 56.8957 77.821 57.455C76.8851 58.3819 76.6187 59.7886 77.0624 61.026L81.8465 75.2614C81.9917 75.6881 82.0321 76.1434 81.9639 76.589C81.8958 77.0346 81.7212 77.4571 81.455 77.8209Z" stroke="#222222" stroke-width="0.460083" stroke-miterlimit="10"/>
<path d="M22.2019 77.6172H10.9391C10.5569 77.6172 10.2471 77.927 10.2471 78.3092C10.2471 78.6915 10.5569 79.0013 10.9391 79.0013H22.2019C22.5841 79.0013 22.894 78.6915 22.894 78.3092C22.894 77.927 22.5841 77.6172 22.2019 77.6172Z" stroke="#222222" stroke-width="0.460083" stroke-miterlimit="10"/>
<path d="M10.4055 37.4231C10.4844 37.5408 10.5932 37.6348 10.7208 37.6954L21.54 43.018C21.6748 43.0789 21.8211 43.1108 21.9694 43.1119C22.1179 43.1129 22.2652 43.083 22.4023 43.0241C22.6367 42.9282 22.8373 42.7631 22.9773 42.5505C23.2056 42.1987 23.2062 41.7916 23.0142 41.5057C22.9897 41.47 22.9626 41.4361 22.9332 41.4045C22.8659 41.3351 22.7871 41.278 22.7004 41.2356L11.8812 35.913C11.4093 35.6792 10.759 35.8933 10.4401 36.383C10.2114 36.7308 10.2108 37.1379 10.4055 37.4231Z" stroke="#222222" stroke-width="0.460083" stroke-miterlimit="10"/>
<path d="M22.7314 41.5C22.7314 41.5 23.7193 40 25.6949 40" stroke="#222222" stroke-width="0.460083" stroke-miterlimit="10"/>
<path d="M29.4697 28.6455L26.7438 31.6684C26.554 31.879 26.2905 32.0087 26.0078 32.0306C25.7251 32.0526 25.4447 31.9651 25.2247 31.7863C25.1031 31.6876 25.0039 31.5643 24.9336 31.4244C24.8632 31.2846 24.8232 31.1314 24.8165 30.975C24.8096 30.8186 24.8361 30.6624 24.8941 30.517C24.952 30.3716 25.0402 30.2401 25.1527 30.1313L25.6513 29.6489C25.6702 29.6219 25.6918 29.5976 25.7134 29.5724L26.0733 29.1755L29.1692 25.8115C29.5449 25.3985 30.0181 25.0863 30.5454 24.9034C31.0729 24.7203 31.6378 24.6724 32.1885 24.764L32.2344 24.7721" stroke="#222222" stroke-width="0.460083" stroke-miterlimit="10"/>
<path d="M33.3079 29.461H30.5811C30.2708 29.461 29.9732 29.3377 29.7538 29.1183C29.5344 28.8989 29.4111 28.6013 29.4111 28.291C29.4111 27.9807 29.5344 27.6832 29.7538 27.4638C29.9732 27.2444 30.2708 27.1211 30.5811 27.1211H34.4508" stroke="#222222" stroke-width="0.460083" stroke-miterlimit="10"/>
<path d="M31.2179 29.4609C31.1801 29.9388 30.9974 30.2925 30.7283 30.5409C30.0353 31.1708 28.7646 31.1015 27.8809 30.6687" stroke="#222222" stroke-width="0.460083" stroke-miterlimit="10"/>
<path d="M26.0775 29.1709C25.2936 28.2268 25.4547 26.9435 26.064 25.9509C28.5793 21.8435 33.3743 24.3732 36.5268 26.1434C38.4034 27.2022 40.1973 28.4014 41.8931 29.7306C43.3942 30.9006 44.7838 32.3009 46.5872 33.0047C47.6672 33.4267 48.9424 33.5275 50.0169 33.0407" stroke="#222222" stroke-width="0.460083" stroke-miterlimit="10"/>
<path d="M30.7285 30.5312C32.6307 31.9353 34.447 33.452 36.1678 35.0733" stroke="#222222" stroke-width="0.460083" stroke-miterlimit="10"/>
<path d="M53.8733 8.4559C54.3286 8.87168 55.0279 8.89417 55.6066 8.83838C56.3463 8.77088 57.0789 8.59179 57.8033 8.4406L58.2434 8.4181H58.2497C58.3341 8.419 58.4174 8.43637 58.4951 8.46949C58.5728 8.50252 58.6432 8.55057 58.7022 8.61078C58.7613 8.67108 58.8079 8.74235 58.8394 8.82065C58.871 8.89894 58.8868 8.98264 58.886 9.06696C58.896 10.0168 58.8013 10.9648 58.6034 11.8937L59.4466 12.35C59.5555 12.0458 59.4331 11.6075 59.6914 11.5742C59.857 11.2655 60.1036 11.0649 60.4906 11.2943C61.2483 11.7443 61.5471 13.0663 60.8172 13.672L61.2852 14.5468C61.4484 14.8535 61.7129 15.0939 62.0335 15.2272C62.3543 15.3605 62.7114 15.3783 63.0437 15.2775L62.5658 14.221C63.6872 14.4199 64.4719 13.0204 64.1299 12.1664C63.8968 11.5796 63.9085 11.1234 64.2199 10.5528C64.2406 10.5141 64.0291 10.4628 64.0471 10.4232C64.0579 10.0047 63.9418 9.55654 63.7403 9.34325C63.3857 8.96167 62.672 8.89327 62.8178 8.31371C62.8826 8.06154 62.9066 7.80056 62.8889 7.54065C62.8508 7.20092 62.7405 6.87325 62.5652 6.57977C62.39 6.28621 62.1539 6.03359 61.8729 5.83884C61.2825 5.45097 60.6219 5.80285 59.9911 5.79295C59.2252 5.78485 58.6763 5.13508 57.8735 5.12518C57.4739 5.11889 57.1536 5.27458 56.8116 5.46807C56.5254 5.63276 56.2437 5.80465 55.9701 5.99094C55.6966 6.17723 55.4536 6.33832 55.1269 6.33922C54.7012 6.34462 54.2899 6.07463 53.8616 6.20063C53.6449 6.25894 53.4546 6.38907 53.3216 6.5696C53.1857 7.23377 53.4314 8.05542 53.8733 8.4559Z" fill="url(#paint1_linear_2054_10612)"/>
<path d="M59.4502 12.2489C59.5051 12.0145 59.586 11.7869 59.6914 11.5704C59.857 11.2617 60.1045 11.061 60.4905 11.2905C61.2483 11.7405 61.5471 13.0625 60.8172 13.6682L61.2852 14.5429C61.4483 14.8495 61.7128 15.0901 62.0335 15.2234C62.3542 15.3566 62.7113 15.3744 63.0437 15.2737" stroke="#222222" stroke-width="0.460083" stroke-linecap="round" stroke-linejoin="round"/>
<path d="M62.5664 14.2188L63.0425 15.2771C63.1622 15.53 63.5051 16.3075 63.8641 17.1157C64.1197 17.6944 64.3861 18.2901 64.5841 18.7284" stroke="#222222" stroke-width="0.460083" stroke-linecap="round" stroke-linejoin="round"/>
<path d="M54.8525 10.4181C54.8525 10.4181 56.2556 10.0689 56.8684 11.1327" stroke="#222222" stroke-width="0.460083" stroke-miterlimit="10"/>
<path d="M55.2669 13.5945C54.8889 13.698 54.3804 13.7907 54.0889 13.4613L54.7242 12.124C54.8785 11.796 54.9166 11.4254 54.8322 11.0728C54.6936 10.4798 54.3472 9.57893 54.7188 8.79688" stroke="#222222" stroke-width="0.460083" stroke-miterlimit="10"/>
<path d="M56.211 11.7984C56.3175 11.6218 56.2354 11.3771 56.0276 11.2519C55.8199 11.1267 55.5652 11.1684 55.4588 11.3451C55.3522 11.5217 55.4343 11.7664 55.6421 11.8916C55.8498 12.0169 56.1045 11.9751 56.211 11.7984Z" fill="#222222"/>
<path d="M58.2588 20.2186L57.9258 16.5234" stroke="#222222" stroke-width="0.460083" stroke-miterlimit="10"/>
<path d="M59.4463 12.347C59.4463 12.3146 59.4463 12.2813 59.4463 12.2489C59.4481 12.2142 59.4481 12.1794 59.4463 12.1445" stroke="#222222" stroke-width="0.460083" stroke-linecap="round" stroke-linejoin="round"/>
<path d="M59.4457 12.3478L59.1559 12.1921L58.6016 11.8906" stroke="#222222" stroke-width="0.460083" stroke-linecap="round" stroke-linejoin="round"/>
<path d="M57.1272 13.6875C57.1272 13.6875 57.0993 14.6234 56.0293 15.0086" stroke="#222222" stroke-width="0.460083" stroke-miterlimit="10"/>
<path d="M62.5648 14.2177C63.6861 14.4166 64.4709 13.0172 64.1289 12.1631C63.8958 11.5764 63.9075 11.1201 64.2189 10.5495C64.2396 10.5108 64.2567 10.473 64.2747 10.4352C64.506 9.92497 64.4241 9.4192 64.0605 8.98543C63.7158 8.57505 63.1966 8.43106 63.3459 7.83259C63.4131 7.57278 63.438 7.30387 63.4197 7.03614C63.3809 6.68669 63.2676 6.34965 63.0876 6.04772C62.9075 5.74579 62.6648 5.48597 62.3758 5.28573C61.7692 4.88346 61.0862 5.24794 60.4328 5.23804C59.6463 5.22634 59.0784 4.55677 58.2532 4.54688C57.8401 4.54688 57.5071 4.70077 57.1561 4.90055C56.8609 5.07065 56.5685 5.24974 56.2895 5.44052C56.0105 5.63131 55.7495 5.8005 55.4183 5.8005C54.9792 5.8005 54.5553 5.53052 54.1161 5.65651C53.6769 5.78251 53.4159 6.14609 53.3296 6.56726C53.1892 7.22783 53.4348 8.05308 53.8767 8.45716C54.3321 8.87293 55.0314 8.89543 55.61 8.83964C56.3498 8.77214 57.0823 8.59305 57.8068 8.44186L58.2469 8.41936H58.2532C58.3376 8.42017 58.4209 8.43763 58.4986 8.47066C58.5762 8.50377 58.6466 8.55174 58.7056 8.61204C58.7648 8.67224 58.8114 8.74361 58.843 8.82182C58.8745 8.90011 58.8902 8.98381 58.8894 9.06822C58.8995 10.018 58.8047 10.9659 58.6068 11.895" stroke="#222222" stroke-width="0.460083" stroke-miterlimit="10"/>
<path d="M59.6168 15.2424C59.6168 15.2424 57.9447 17.4634 56.4589 16.9658C54.9731 16.4681 54.8975 13.7188 54.8975 13.7188" stroke="#222222" stroke-width="0.460083" stroke-linecap="round" stroke-linejoin="round"/>
<path d="M15.54 77.4613V46H17.4652V77.4743" stroke="#222222" stroke-width="0.443538" stroke-miterlimit="10"/>
<path d="M17.3427 25.8379C19.1231 25.8379 20.5663 24.3946 20.5663 22.6142C20.5663 20.8339 19.1231 19.3906 17.3427 19.3906C15.5624 19.3906 14.1191 20.8339 14.1191 22.6142C14.1191 24.3946 15.5624 25.8379 17.3427 25.8379Z" fill="url(#paint2_linear_2054_10612)"/>
<path d="M16.0816 23.4472C15.9872 23.3828 15.9036 23.3041 15.8332 23.2141C15.7087 23.0601 15.6451 22.8658 15.6542 22.668C15.6633 22.4702 15.7446 22.2825 15.8827 22.1405C15.9728 22.0478 16.0831 21.9772 16.205 21.9342C16.327 21.8913 16.4572 21.8772 16.5855 21.893C16.5571 21.7146 16.5875 21.5316 16.6723 21.372C16.757 21.2123 16.8914 21.0845 17.0551 21.008C17.2189 20.9315 17.4031 20.9103 17.5799 20.9477C17.7567 20.9852 17.9166 21.0791 18.0353 21.2154C18.2864 21.4997 18.4043 21.9227 18.4484 22.2953C18.4712 22.4898 18.4742 22.6861 18.4574 22.8812C18.4493 22.9793 18.4142 23.5453 18.3224 23.5813C17.7159 23.8135 16.6818 23.8639 16.0816 23.4472Z" fill="white"/>
<path d="M40.0873 25.0769C41.0416 25.0769 41.8152 24.3033 41.8152 23.349C41.8152 22.3947 41.0416 21.6211 40.0873 21.6211C39.133 21.6211 38.3594 22.3947 38.3594 23.349C38.3594 24.3033 39.133 25.0769 40.0873 25.0769Z" fill="url(#paint3_linear_2054_10612)"/>
<path d="M39.9678 22.5483C40.0203 22.5166 40.0778 22.4938 40.1379 22.4808C40.2411 22.456 40.3498 22.4698 40.4436 22.5194C40.5374 22.5692 40.6098 22.6515 40.6472 22.7508C40.6716 22.8157 40.6806 22.8854 40.6736 22.9545C40.6666 23.0234 40.6437 23.0899 40.6067 23.1486C40.6977 23.1775 40.7772 23.2346 40.8336 23.3118C40.89 23.3889 40.9204 23.4818 40.9204 23.5774C40.9204 23.6729 40.89 23.766 40.8336 23.8431C40.7772 23.9201 40.6977 23.9773 40.6067 24.0062C40.4007 24.0513 40.1859 24.0357 39.9885 23.9612C39.889 23.9277 39.7931 23.8843 39.7023 23.8317C39.6564 23.8056 39.3891 23.6598 39.3936 23.6067C39.4197 23.2575 39.6312 22.7445 39.9678 22.5483Z" fill="white"/>
<path d="M26.6901 21.3782C26.8838 21.5398 27.0999 21.6723 27.3317 21.7714C27.7587 21.9496 28.2246 22.0139 28.6838 21.9579C29.1431 21.9019 29.5799 21.7276 29.9515 21.452C30.2395 21.2324 30.4915 20.9291 30.7893 20.7086C30.9971 20.5458 31.2467 20.4447 31.5093 20.417C31.5966 20.4195 31.6832 20.4013 31.7622 20.3639C31.962 20.2397 31.7262 20.0336 31.7055 19.8878C31.6778 19.6547 31.7363 19.4194 31.8702 19.2264C32.212 18.7167 32.367 18.1043 32.3088 17.4933C32.2507 16.8823 31.9829 16.3102 31.551 15.8741C31.1192 15.438 30.5497 15.1646 29.9393 15.1005C29.3289 15.0364 28.7151 15.1854 28.202 15.5222C27.6953 15.8543 27.3191 16.3465 26.9376 16.8172C26.601 17.2321 26.2491 17.6407 26.0025 18.1149C25.423 19.23 25.7613 20.6033 26.6901 21.3782Z" fill="url(#paint4_linear_2054_10612)"/>
<path d="M30.1267 17.7006C30.4453 17.7006 30.7035 17.4423 30.7035 17.1237C30.7035 16.8051 30.4453 16.5469 30.1267 16.5469C29.8081 16.5469 29.5498 16.8051 29.5498 17.1237C29.5498 17.4423 29.8081 17.7006 30.1267 17.7006Z" fill="white"/>
<path d="M29.0095 19.0678C29.3281 19.0678 29.5863 18.8095 29.5863 18.4909C29.5863 18.1723 29.3281 17.9141 29.0095 17.9141C28.6909 17.9141 28.4326 18.1723 28.4326 18.4909C28.4326 18.8095 28.6909 19.0678 29.0095 19.0678Z" fill="white"/>
<path d="M27.9636 20.349C28.2822 20.349 28.5404 20.0908 28.5404 19.7722C28.5404 19.4536 28.2822 19.1953 27.9636 19.1953C27.645 19.1953 27.3867 19.4536 27.3867 19.7722C27.3867 20.0908 27.645 20.349 27.9636 20.349Z" fill="white"/>
<path d="M26.7334 78.9844H64.1954" stroke="#222222" stroke-width="0.286982" stroke-miterlimit="10"/>
<defs>
<linearGradient id="paint0_linear_2054_10612" x1="58.2363" y1="59.6414" x2="81.9997" y2="59.6414" gradientUnits="userSpaceOnUse">
<stop stop-color="#FF6666"/>
<stop offset="1" stop-color="#FF9688"/>
</linearGradient>
<linearGradient id="paint1_linear_2054_10612" x1="53.2842" y1="10.2335" x2="64.2214" y2="10.2335" gradientUnits="userSpaceOnUse">
<stop stop-color="#FF6666"/>
<stop offset="1" stop-color="#FF9688"/>
</linearGradient>
<linearGradient id="paint2_linear_2054_10612" x1="14.1191" y1="22.6142" x2="20.5663" y2="22.6142" gradientUnits="userSpaceOnUse">
<stop stop-color="#FF6666"/>
<stop offset="1" stop-color="#FF9688"/>
</linearGradient>
<linearGradient id="paint3_linear_2054_10612" x1="38.3594" y1="23.349" x2="41.8152" y2="23.349" gradientUnits="userSpaceOnUse">
<stop stop-color="#FF6666"/>
<stop offset="1" stop-color="#FF9688"/>
</linearGradient>
<linearGradient id="paint4_linear_2054_10612" x1="25.7168" y1="18.5317" x2="32.3208" y2="18.5317" gradientUnits="userSpaceOnUse">
<stop stop-color="#FF6666"/>
<stop offset="1" stop-color="#FF9688"/>
</linearGradient>
</defs>
</svg>
