<svg width="29" height="29" viewBox="0 0 29 29" fill="none" xmlns="http://www.w3.org/2000/svg">
<g id="Frame 68">
<path id="Star 5" d="M14.0767 4.21993C14.4183 3.39864 15.5817 3.39864 15.9233 4.21993L17.9395 9.06735C18.0835 9.41358 18.4091 9.65015 18.7829 9.68012L24.0161 10.0997C24.9027 10.1707 25.2623 11.2773 24.5867 11.8559L20.5996 15.2713C20.3148 15.5153 20.1904 15.8981 20.2774 16.2628L21.4956 21.3695C21.702 22.2348 20.7607 22.9186 20.0016 22.455L15.5213 19.7184C15.2012 19.5229 14.7988 19.5229 14.4787 19.7184L9.9984 22.455C9.2393 22.9186 8.29805 22.2348 8.50444 21.3695L9.72257 16.2628C9.80958 15.8981 9.68521 15.5153 9.40042 15.2713L5.41328 11.8559C4.73774 11.2773 5.09727 10.1707 5.98392 10.0997L11.2171 9.68012C11.5909 9.65015 11.9165 9.41358 12.0605 9.06735L14.0767 4.21993Z" fill="url(#paint0_linear_495_5711)"/>
<rect x="0.5" y="0.5" width="28" height="28" rx="5.5" stroke="#FFD700"/>
</g>
<defs>
<linearGradient id="paint0_linear_495_5711" x1="15" y1="2" x2="15" y2="26" gradientUnits="userSpaceOnUse">
<stop stop-color="#FFF9BF"/>
<stop offset="1" stop-color="#FFDD29"/>
</linearGradient>
</defs>
</svg>
