<svg width="24" height="24" viewBox="0 0 24 24" fill="none" xmlns="http://www.w3.org/2000/svg">
<path d="M6 6C6 5.44772 6.44772 5 7 5H9.75C10.3023 5 10.75 5.44772 10.75 6V8.75C10.75 9.30228 10.3023 9.75 9.75 9.75H7C6.44772 9.75 6 9.30228 6 8.75V6ZM17.6667 5C18.219 5 18.6667 5.44772 18.6667 6V8.75C18.6667 9.30228 18.219 9.75 17.6667 9.75H14.9167C14.3644 9.75 13.9167 9.30228 13.9167 8.75V6C13.9167 5.44772 14.3644 5 14.9167 5H17.6667ZM13.9167 14.1042C13.9167 13.8856 14.0939 13.7083 14.3125 13.7083H15.5V12.125H14.7083C14.2711 12.125 13.9167 11.7706 13.9167 11.3333C13.9167 10.8961 14.2711 10.5417 14.7083 10.5417C15.1456 10.5417 15.5 10.8961 15.5 11.3333V12.125H17.0833V11.3333C17.0833 10.8961 17.4378 10.5417 17.875 10.5417C18.3122 10.5417 18.6667 10.8961 18.6667 11.3333C18.6667 11.7706 18.3122 12.125 17.875 12.125H17.0833V13.7083H17.6667C18.219 13.7083 18.6667 14.156 18.6667 14.7083V15.0833C18.6667 15.6356 18.219 16.0833 17.6667 16.0833H17.0833V16.875C17.0833 17.3122 16.7289 17.6667 16.2917 17.6667C15.8544 17.6667 15.5 17.3122 15.5 16.875V16.0833H13.9167C13.4794 16.0833 13.125 16.4378 13.125 16.875C13.125 17.3122 12.7706 17.6667 12.3333 17.6667C11.8961 17.6667 11.5417 17.3122 11.5417 16.875V15.5C11.5417 14.9477 11.9894 14.5 12.5417 14.5H13.5208C13.7394 14.5 13.9167 14.3228 13.9167 14.1042ZM15.5 13.7083V16.0833H17.0833V13.7083H15.5ZM7 17.6667C6.44772 17.6667 6 17.219 6 16.6667V13.9167C6 13.3644 6.44772 12.9167 7 12.9167H9.75C10.3023 12.9167 10.75 13.3644 10.75 13.9167V16.6667C10.75 17.219 10.3023 17.6667 9.75 17.6667H7ZM8.375 6.58333C7.93777 6.58333 7.58333 6.93777 7.58333 7.375C7.58333 7.81223 7.93777 8.16667 8.375 8.16667C8.81223 8.16667 9.16667 7.81223 9.16667 7.375C9.16667 6.93777 8.81223 6.58333 8.375 6.58333ZM16.2917 6.58333C15.8544 6.58333 15.5 6.93777 15.5 7.375C15.5 7.81223 15.8544 8.16667 16.2917 8.16667C16.7289 8.16667 17.0833 7.81223 17.0833 7.375C17.0833 6.93777 16.7289 6.58333 16.2917 6.58333ZM8.375 14.5C7.93777 14.5 7.58333 14.8544 7.58333 15.2917C7.58333 15.7289 7.93777 16.0833 8.375 16.0833C8.81223 16.0833 9.16667 15.7289 9.16667 15.2917C9.16667 14.8544 8.81223 14.5 8.375 14.5ZM6 11.3333C6 10.8961 6.35444 10.5417 6.79167 10.5417C7.22889 10.5417 7.58333 10.8961 7.58333 11.3333C7.58333 11.7706 7.22889 12.125 6.79167 12.125C6.35444 12.125 6 11.7706 6 11.3333ZM9.95833 11.3333C9.95833 10.8961 10.3128 10.5417 10.75 10.5417H12.125C12.6773 10.5417 13.125 10.9894 13.125 11.5417V12.9167C13.125 13.3539 12.7706 13.7083 12.3333 13.7083C11.8961 13.7083 11.5417 13.3539 11.5417 12.9167C11.5417 12.4794 11.1872 12.125 10.75 12.125C10.3128 12.125 9.95833 11.7706 9.95833 11.3333ZM11.5417 7.375C11.5417 6.93778 11.8961 6.58333 12.3333 6.58333C12.7706 6.58333 13.125 6.93777 13.125 7.375V8.95833C13.125 9.39556 12.7706 9.75 12.3333 9.75C11.8961 9.75 11.5417 9.39556 11.5417 8.95833V7.375Z" fill="#888888"/>
<path d="M7.39698 2L3.00122 2.00069L3 6.40625" stroke="#2C69A1" stroke-width="1.75"/>
<path d="M7.39698 21.4062L3.00122 21.4056L3 17" stroke="#2C69A1" stroke-width="1.75"/>
<path d="M18.0015 2L22.3972 2.00069L22.3984 6.40625" stroke="#2C69A1" stroke-width="1.75"/>
<path d="M18.0015 21.4062L22.3972 21.4056L22.3984 17" stroke="#2C69A1" stroke-width="1.75"/>
<line x1="2" y1="10.5" x2="23" y2="10.5" stroke="#2C69A2"/>
<rect x="2" y="11" width="21" height="7" fill="url(#paint0_linear_1236_24946)" fill-opacity="0.5"/>
<defs>
<linearGradient id="paint0_linear_1236_24946" x1="12.5" y1="11" x2="12.5" y2="18" gradientUnits="userSpaceOnUse">
<stop stop-color="#2C69A1"/>
<stop offset="1" stop-color="#2C69A1" stop-opacity="0"/>
</linearGradient>
</defs>
</svg>
