<svg width="30" height="29" viewBox="0 0 30 29" fill="none" xmlns="http://www.w3.org/2000/svg">
<path id="Star 5" d="M13.3555 1.49149C13.9706 0.0139113 16.0638 0.0139093 16.679 1.49148L19.3604 7.93228C19.6198 8.55525 20.2058 8.98084 20.8785 9.03471L27.8354 9.59191C29.4319 9.71978 30.0789 11.7124 28.8621 12.7537L23.5641 17.2876C23.051 17.7268 22.8268 18.4163 22.9837 19.0732L24.6027 25.8542C24.9745 27.4113 23.2809 28.6426 21.9144 27.8087L15.9548 24.1721C15.3791 23.8208 14.6553 23.8208 14.0796 24.1721L8.12013 27.8087C6.75355 28.6426 5.05994 27.4113 5.43173 25.8542L7.05078 19.0732C7.20764 18.4163 6.98351 17.7268 6.47035 17.2876L1.17243 12.7537C-0.0443929 11.7124 0.602612 9.71978 2.19907 9.59191L9.15602 9.03471C9.82867 8.98084 10.4147 8.55526 10.6741 7.93228L13.3555 1.49149Z" fill="#FFD700"/>
</svg>
