<svg width="30" height="29" viewBox="0 0 30 29" fill="none" xmlns="http://www.w3.org/2000/svg">
<path id="Star 5" d="M16.2635 1.66834L18.945 8.10914C19.2692 8.88786 20.0017 9.41984 20.8425 9.48718L27.7995 10.0444C28.9968 10.1403 29.4821 11.6348 28.5695 12.4158L23.2715 16.9496C22.6301 17.4986 22.3499 18.3605 22.546 19.1817L24.1651 25.9626C24.4439 27.1304 23.1737 28.0539 22.1488 27.4285L16.1892 23.7919C15.4696 23.3528 14.5649 23.3528 13.8452 23.7919L7.88572 27.4285C6.86079 28.0539 5.59059 27.1304 5.86943 25.9626L7.48847 19.1817C7.68455 18.3605 7.40439 17.4986 6.76293 16.9496L1.46502 12.4158C0.5524 11.6348 1.03766 10.1403 2.235 10.0444L9.19195 9.48718C10.0328 9.41984 10.7653 8.88786 11.0895 8.10914L13.7709 1.66835C14.2323 0.560165 15.8022 0.560165 16.2635 1.66834Z" stroke="#AAAAAA" stroke-width="0.9"/>
</svg>
