<svg width="51" height="13" viewBox="0 0 51 13" fill="none" xmlns="http://www.w3.org/2000/svg">
<g clip-path="url(#clip0_2054_10450)">
<path d="M12.2802 11.2212L6.89719 5.83719C6.75519 5.69519 6.56719 5.61719 6.36719 5.61719C6.16719 5.61719 5.97819 5.69519 5.83719 5.83719C5.69519 5.97919 5.61719 6.16719 5.61719 6.36719C5.61719 6.56719 5.69519 6.75619 5.83719 6.89719L11.2202 12.2802C11.3622 12.4222 11.5502 12.5002 11.7502 12.5002C11.9502 12.5002 12.1392 12.4222 12.2802 12.2802C12.4222 12.1382 12.5002 11.9502 12.5002 11.7502C12.5002 11.5502 12.4222 11.3622 12.2802 11.2212Z" fill="url(#paint0_linear_2054_10450)"/>
<path opacity="0.2" d="M6.36719 5.91719C6.48719 5.91719 6.60019 5.96419 6.68519 6.04919L12.0682 11.4322C12.1532 11.5172 12.2002 11.6302 12.2002 11.7502C12.2002 11.8702 12.1532 11.9832 12.0682 12.0682C11.9832 12.1532 11.8702 12.2002 11.7502 12.2002C11.6302 12.2002 11.5172 12.1532 11.4322 12.0682L6.04819 6.68519C5.96319 6.60019 5.91619 6.48719 5.91619 6.36719C5.91619 6.24719 5.96319 6.13419 6.04819 6.04919C6.13319 5.96419 6.24619 5.91719 6.36719 5.91719ZM6.36719 5.61719C6.16719 5.61719 5.97819 5.69519 5.83719 5.83719C5.69519 5.97919 5.61719 6.16719 5.61719 6.36719C5.61719 6.56719 5.69519 6.75619 5.83719 6.89719L11.2202 12.2802C11.3622 12.4222 11.5502 12.5002 11.7502 12.5002C11.9502 12.5002 12.1392 12.4222 12.2802 12.2802C12.4222 12.1382 12.5002 11.9502 12.5002 11.7502C12.5002 11.5502 12.4222 11.3612 12.2802 11.2202L6.89719 5.83619C6.75519 5.69519 6.56719 5.61719 6.36719 5.61719Z" fill="#434343"/>
<path d="M5 9.5C7.48528 9.5 9.5 7.48528 9.5 5C9.5 2.51472 7.48528 0.5 5 0.5C2.51472 0.5 0.5 2.51472 0.5 5C0.5 7.48528 2.51472 9.5 5 9.5Z" fill="url(#paint1_linear_2054_10450)"/>
<path opacity="0.2" d="M5 0.8C7.316 0.8 9.2 2.684 9.2 5C9.2 7.316 7.316 9.2 5 9.2C2.684 9.2 0.8 7.316 0.8 5C0.8 2.684 2.684 0.8 5 0.8ZM5 0.5C2.515 0.5 0.5 2.515 0.5 5C0.5 7.485 2.515 9.5 5 9.5C7.485 9.5 9.5 7.485 9.5 5C9.5 2.515 7.485 0.5 5 0.5Z" fill="#434343"/>
<path d="M7.95424 2.49312C7.02924 1.43212 4.57924 0.397116 2.48124 2.00012C1.71424 2.58612 1.07324 3.92512 1.07324 5.18812C1.07324 5.85112 1.22324 6.47812 1.49024 7.03912C1.30624 6.57512 1.20524 6.07312 1.20524 5.55212C1.20524 3.67412 2.71024 1.77712 4.72224 1.74012C7.07824 1.69712 8.12324 3.30412 8.12324 4.80612C8.12324 5.91912 7.64524 6.73112 6.92424 7.18812C6.48024 7.47012 5.94324 7.61612 5.36924 7.61412C4.09824 7.60912 3.13424 6.72812 3.13424 5.43112C3.13424 4.24512 4.09724 3.55512 5.02424 3.51612C6.21324 3.46612 6.63424 4.42712 6.62624 5.04312C6.61624 5.81912 5.92224 6.26612 5.30024 6.21912C4.75824 6.17812 4.43124 5.83112 4.44924 5.25512C4.46224 4.86712 4.82524 4.57912 5.16224 4.57912C5.53724 4.57912 5.78924 4.84312 5.82524 5.09212C5.85924 5.32212 5.78824 5.68012 5.28724 5.68012C5.08424 5.68012 4.92924 5.51112 4.90524 5.38212C4.88224 5.25412 4.90024 5.02012 5.11524 5.02012C5.11524 5.02012 4.91424 5.13512 5.01424 5.32712C5.06824 5.43012 5.14624 5.45312 5.23724 5.45512C5.39024 5.44212 5.51024 5.32412 5.51024 5.17812C5.51024 4.98512 5.34224 4.82812 5.13524 4.82812C4.87624 4.82812 4.66724 5.02412 4.66724 5.26512C4.66724 5.56712 4.90424 5.93012 5.32024 5.94712C5.80624 5.96712 6.30224 5.51112 6.21324 4.96512C6.13724 4.50012 5.89424 4.03912 5.08424 4.03912C4.45224 4.03912 3.72124 4.43412 3.72124 5.34212C3.72124 6.33612 4.53524 6.96912 5.32424 6.96912C6.53824 6.96912 7.50124 6.33212 7.50124 4.95412C7.50124 4.62412 7.45124 4.28812 7.33324 3.97612C7.12624 3.42812 6.47124 2.50512 4.85424 2.48612C3.30424 2.46712 2.04724 3.74312 2.04724 5.29312C2.04724 7.11812 3.48624 8.48812 5.46924 8.49712C7.86724 8.50912 10.3472 5.23612 7.95424 2.49312Z" fill="url(#paint2_linear_2054_10450)"/>
</g>
<g clip-path="url(#clip1_2054_10450)">
<path d="M31.2802 11.2212L25.8972 5.83719C25.7552 5.69519 25.5672 5.61719 25.3672 5.61719C25.1672 5.61719 24.9782 5.69519 24.8372 5.83719C24.6952 5.97919 24.6172 6.16719 24.6172 6.36719C24.6172 6.56719 24.6952 6.75619 24.8372 6.89719L30.2202 12.2802C30.3622 12.4222 30.5502 12.5002 30.7502 12.5002C30.9502 12.5002 31.1392 12.4222 31.2802 12.2802C31.4222 12.1382 31.5002 11.9502 31.5002 11.7502C31.5002 11.5502 31.4222 11.3622 31.2802 11.2212Z" fill="url(#paint3_linear_2054_10450)"/>
<path opacity="0.2" d="M25.3672 5.91719C25.4872 5.91719 25.6002 5.96419 25.6852 6.04919L31.0682 11.4322C31.1532 11.5172 31.2002 11.6302 31.2002 11.7502C31.2002 11.8702 31.1532 11.9832 31.0682 12.0682C30.9832 12.1532 30.8702 12.2002 30.7502 12.2002C30.6302 12.2002 30.5172 12.1532 30.4322 12.0682L25.0482 6.68519C24.9632 6.60019 24.9162 6.48719 24.9162 6.36719C24.9162 6.24719 24.9632 6.13419 25.0482 6.04919C25.1332 5.96419 25.2462 5.91719 25.3672 5.91719ZM25.3672 5.61719C25.1672 5.61719 24.9782 5.69519 24.8372 5.83719C24.6952 5.97919 24.6172 6.16719 24.6172 6.36719C24.6172 6.56719 24.6952 6.75619 24.8372 6.89719L30.2202 12.2802C30.3622 12.4222 30.5502 12.5002 30.7502 12.5002C30.9502 12.5002 31.1392 12.4222 31.2802 12.2802C31.4222 12.1382 31.5002 11.9502 31.5002 11.7502C31.5002 11.5502 31.4222 11.3612 31.2802 11.2202L25.8972 5.83619C25.7552 5.69519 25.5672 5.61719 25.3672 5.61719Z" fill="#434343"/>
<path d="M24 9.5C26.4853 9.5 28.5 7.48528 28.5 5C28.5 2.51472 26.4853 0.5 24 0.5C21.5147 0.5 19.5 2.51472 19.5 5C19.5 7.48528 21.5147 9.5 24 9.5Z" fill="url(#paint4_linear_2054_10450)"/>
<path opacity="0.2" d="M24 0.8C26.316 0.8 28.2 2.684 28.2 5C28.2 7.316 26.316 9.2 24 9.2C21.684 9.2 19.8 7.316 19.8 5C19.8 2.684 21.684 0.8 24 0.8ZM24 0.5C21.515 0.5 19.5 2.515 19.5 5C19.5 7.485 21.515 9.5 24 9.5C26.485 9.5 28.5 7.485 28.5 5C28.5 2.515 26.485 0.5 24 0.5Z" fill="#434343"/>
<path d="M26.9542 2.49312C26.0292 1.43212 23.5792 0.397116 21.4812 2.00012C20.7142 2.58612 20.0732 3.92512 20.0732 5.18812C20.0732 5.85112 20.2232 6.47812 20.4902 7.03912C20.3062 6.57512 20.2052 6.07312 20.2052 5.55212C20.2052 3.67412 21.7102 1.77712 23.7222 1.74012C26.0782 1.69712 27.1232 3.30412 27.1232 4.80612C27.1232 5.91912 26.6452 6.73112 25.9242 7.18812C25.4802 7.47012 24.9432 7.61612 24.3692 7.61412C23.0982 7.60912 22.1342 6.72812 22.1342 5.43112C22.1342 4.24512 23.0972 3.55512 24.0242 3.51612C25.2132 3.46612 25.6342 4.42712 25.6262 5.04312C25.6162 5.81912 24.9222 6.26612 24.3002 6.21912C23.7582 6.17812 23.4312 5.83112 23.4492 5.25512C23.4622 4.86712 23.8252 4.57912 24.1622 4.57912C24.5372 4.57912 24.7892 4.84312 24.8252 5.09212C24.8592 5.32212 24.7882 5.68012 24.2872 5.68012C24.0842 5.68012 23.9292 5.51112 23.9052 5.38212C23.8822 5.25412 23.9002 5.02012 24.1152 5.02012C24.1152 5.02012 23.9142 5.13512 24.0142 5.32712C24.0682 5.43012 24.1462 5.45312 24.2372 5.45512C24.3902 5.44212 24.5102 5.32412 24.5102 5.17812C24.5102 4.98512 24.3422 4.82812 24.1352 4.82812C23.8762 4.82812 23.6672 5.02412 23.6672 5.26512C23.6672 5.56712 23.9042 5.93012 24.3202 5.94712C24.8062 5.96712 25.3022 5.51112 25.2132 4.96512C25.1372 4.50012 24.8942 4.03912 24.0842 4.03912C23.4522 4.03912 22.7212 4.43412 22.7212 5.34212C22.7212 6.33612 23.5352 6.96912 24.3242 6.96912C25.5382 6.96912 26.5012 6.33212 26.5012 4.95412C26.5012 4.62412 26.4512 4.28812 26.3332 3.97612C26.1262 3.42812 25.4712 2.50512 23.8542 2.48612C22.3042 2.46712 21.0472 3.74312 21.0472 5.29312C21.0472 7.11812 22.4862 8.48812 24.4692 8.49712C26.8672 8.50912 29.3472 5.23612 26.9542 2.49312Z" fill="url(#paint5_linear_2054_10450)"/>
</g>
<g clip-path="url(#clip2_2054_10450)">
<path d="M50.2802 11.2212L44.8972 5.83719C44.7552 5.69519 44.5672 5.61719 44.3672 5.61719C44.1672 5.61719 43.9782 5.69519 43.8372 5.83719C43.6952 5.97919 43.6172 6.16719 43.6172 6.36719C43.6172 6.56719 43.6952 6.75619 43.8372 6.89719L49.2202 12.2802C49.3622 12.4222 49.5502 12.5002 49.7502 12.5002C49.9502 12.5002 50.1392 12.4222 50.2802 12.2802C50.4222 12.1382 50.5002 11.9502 50.5002 11.7502C50.5002 11.5502 50.4222 11.3622 50.2802 11.2212Z" fill="url(#paint6_linear_2054_10450)"/>
<path opacity="0.2" d="M44.3672 5.91719C44.4872 5.91719 44.6002 5.96419 44.6852 6.04919L50.0682 11.4322C50.1532 11.5172 50.2002 11.6302 50.2002 11.7502C50.2002 11.8702 50.1532 11.9832 50.0682 12.0682C49.9832 12.1532 49.8702 12.2002 49.7502 12.2002C49.6302 12.2002 49.5172 12.1532 49.4322 12.0682L44.0482 6.68519C43.9632 6.60019 43.9162 6.48719 43.9162 6.36719C43.9162 6.24719 43.9632 6.13419 44.0482 6.04919C44.1332 5.96419 44.2462 5.91719 44.3672 5.91719ZM44.3672 5.61719C44.1672 5.61719 43.9782 5.69519 43.8372 5.83719C43.6952 5.97919 43.6172 6.16719 43.6172 6.36719C43.6172 6.56719 43.6952 6.75619 43.8372 6.89719L49.2202 12.2802C49.3622 12.4222 49.5502 12.5002 49.7502 12.5002C49.9502 12.5002 50.1392 12.4222 50.2802 12.2802C50.4222 12.1382 50.5002 11.9502 50.5002 11.7502C50.5002 11.5502 50.4222 11.3612 50.2802 11.2202L44.8972 5.83619C44.7552 5.69519 44.5672 5.61719 44.3672 5.61719Z" fill="#434343"/>
<path d="M43 9.5C45.4853 9.5 47.5 7.48528 47.5 5C47.5 2.51472 45.4853 0.5 43 0.5C40.5147 0.5 38.5 2.51472 38.5 5C38.5 7.48528 40.5147 9.5 43 9.5Z" fill="url(#paint7_linear_2054_10450)"/>
<path opacity="0.2" d="M43 0.8C45.316 0.8 47.2 2.684 47.2 5C47.2 7.316 45.316 9.2 43 9.2C40.684 9.2 38.8 7.316 38.8 5C38.8 2.684 40.684 0.8 43 0.8ZM43 0.5C40.515 0.5 38.5 2.515 38.5 5C38.5 7.485 40.515 9.5 43 9.5C45.485 9.5 47.5 7.485 47.5 5C47.5 2.515 45.485 0.5 43 0.5Z" fill="#434343"/>
<path d="M45.9542 2.49312C45.0292 1.43212 42.5792 0.397116 40.4812 2.00012C39.7142 2.58612 39.0732 3.92512 39.0732 5.18812C39.0732 5.85112 39.2232 6.47812 39.4902 7.03912C39.3062 6.57512 39.2052 6.07312 39.2052 5.55212C39.2052 3.67412 40.7102 1.77712 42.7222 1.74012C45.0782 1.69712 46.1232 3.30412 46.1232 4.80612C46.1232 5.91912 45.6452 6.73112 44.9242 7.18812C44.4802 7.47012 43.9432 7.61612 43.3692 7.61412C42.0982 7.60912 41.1342 6.72812 41.1342 5.43112C41.1342 4.24512 42.0972 3.55512 43.0242 3.51612C44.2132 3.46612 44.6342 4.42712 44.6262 5.04312C44.6162 5.81912 43.9222 6.26612 43.3002 6.21912C42.7582 6.17812 42.4312 5.83112 42.4492 5.25512C42.4622 4.86712 42.8252 4.57912 43.1622 4.57912C43.5372 4.57912 43.7892 4.84312 43.8252 5.09212C43.8592 5.32212 43.7882 5.68012 43.2872 5.68012C43.0842 5.68012 42.9292 5.51112 42.9052 5.38212C42.8822 5.25412 42.9002 5.02012 43.1152 5.02012C43.1152 5.02012 42.9142 5.13512 43.0142 5.32712C43.0682 5.43012 43.1462 5.45312 43.2372 5.45512C43.3902 5.44212 43.5102 5.32412 43.5102 5.17812C43.5102 4.98512 43.3422 4.82812 43.1352 4.82812C42.8762 4.82812 42.6672 5.02412 42.6672 5.26512C42.6672 5.56712 42.9042 5.93012 43.3202 5.94712C43.8062 5.96712 44.3022 5.51112 44.2132 4.96512C44.1372 4.50012 43.8942 4.03912 43.0842 4.03912C42.4522 4.03912 41.7212 4.43412 41.7212 5.34212C41.7212 6.33612 42.5352 6.96912 43.3242 6.96912C44.5382 6.96912 45.5012 6.33212 45.5012 4.95412C45.5012 4.62412 45.4512 4.28812 45.3332 3.97612C45.1262 3.42812 44.4712 2.50512 42.8542 2.48612C41.3042 2.46712 40.0472 3.74312 40.0472 5.29312C40.0472 7.11812 41.4862 8.48812 43.4692 8.49712C45.8672 8.50912 48.3472 5.23612 45.9542 2.49312Z" fill="url(#paint8_linear_2054_10450)"/>
</g>
<defs>
<linearGradient id="paint0_linear_2054_10450" x1="3.10569" y1="3.10679" x2="11.1162" y2="11.1172" gradientUnits="userSpaceOnUse">
<stop stop-color="#FAA629"/>
<stop offset="1" stop-color="#FECC81"/>
</linearGradient>
<linearGradient id="paint1_linear_2054_10450" x1="0.5" y1="5" x2="9.5" y2="5" gradientUnits="userSpaceOnUse">
<stop offset="0.2047" stop-color="#F48FB1"/>
<stop offset="0.8442" stop-color="#EC407A"/>
</linearGradient>
<linearGradient id="paint2_linear_2054_10450" x1="2.15774" y1="2.19742" x2="8.30024" y2="8.33992" gradientUnits="userSpaceOnUse">
<stop stop-color="#FCE4EB"/>
<stop offset="1" stop-color="#F48FB1"/>
</linearGradient>
<linearGradient id="paint3_linear_2054_10450" x1="22.1057" y1="3.10679" x2="30.1162" y2="11.1172" gradientUnits="userSpaceOnUse">
<stop stop-color="#FAA629"/>
<stop offset="1" stop-color="#FECC81"/>
</linearGradient>
<linearGradient id="paint4_linear_2054_10450" x1="19.5" y1="5" x2="28.5" y2="5" gradientUnits="userSpaceOnUse">
<stop offset="0.2047" stop-color="#F48FB1"/>
<stop offset="0.8442" stop-color="#EC407A"/>
</linearGradient>
<linearGradient id="paint5_linear_2054_10450" x1="21.1577" y1="2.19742" x2="27.3002" y2="8.33992" gradientUnits="userSpaceOnUse">
<stop stop-color="#FCE4EB"/>
<stop offset="1" stop-color="#F48FB1"/>
</linearGradient>
<linearGradient id="paint6_linear_2054_10450" x1="41.1057" y1="3.10679" x2="49.1162" y2="11.1172" gradientUnits="userSpaceOnUse">
<stop stop-color="#FAA629"/>
<stop offset="1" stop-color="#FECC81"/>
</linearGradient>
<linearGradient id="paint7_linear_2054_10450" x1="38.5" y1="5" x2="47.5" y2="5" gradientUnits="userSpaceOnUse">
<stop offset="0.2047" stop-color="#F48FB1"/>
<stop offset="0.8442" stop-color="#EC407A"/>
</linearGradient>
<linearGradient id="paint8_linear_2054_10450" x1="40.1577" y1="2.19742" x2="46.3002" y2="8.33992" gradientUnits="userSpaceOnUse">
<stop stop-color="#FCE4EB"/>
<stop offset="1" stop-color="#F48FB1"/>
</linearGradient>
<clipPath id="clip0_2054_10450">
<rect width="13" height="13" fill="white"/>
</clipPath>
<clipPath id="clip1_2054_10450">
<rect width="13" height="13" fill="white" transform="translate(19)"/>
</clipPath>
<clipPath id="clip2_2054_10450">
<rect width="13" height="13" fill="white" transform="translate(38)"/>
</clipPath>
</defs>
</svg>
