<svg width="13" height="13" viewBox="0 0 13 13" fill="none" xmlns="http://www.w3.org/2000/svg">
<g clip-path="url(#clip0_2054_10494)">
<path d="M12.2802 11.2212L6.89719 5.83719C6.75519 5.69519 6.56719 5.61719 6.36719 5.61719C6.16719 5.61719 5.97819 5.69519 5.83719 5.83719C5.69519 5.97919 5.61719 6.16719 5.61719 6.36719C5.61719 6.56719 5.69519 6.75619 5.83719 6.89719L11.2202 12.2802C11.3622 12.4222 11.5502 12.5002 11.7502 12.5002C11.9502 12.5002 12.1392 12.4222 12.2802 12.2802C12.4222 12.1382 12.5002 11.9502 12.5002 11.7502C12.5002 11.5502 12.4222 11.3622 12.2802 11.2212Z" fill="url(#paint0_linear_2054_10494)"/>
<path opacity="0.2" d="M6.36719 5.91719C6.48719 5.91719 6.60019 5.96419 6.68519 6.04919L12.0682 11.4322C12.1532 11.5172 12.2002 11.6302 12.2002 11.7502C12.2002 11.8702 12.1532 11.9832 12.0682 12.0682C11.9832 12.1532 11.8702 12.2002 11.7502 12.2002C11.6302 12.2002 11.5172 12.1532 11.4322 12.0682L6.04819 6.68519C5.96319 6.60019 5.91619 6.48719 5.91619 6.36719C5.91619 6.24719 5.96319 6.13419 6.04819 6.04919C6.13319 5.96419 6.24619 5.91719 6.36719 5.91719ZM6.36719 5.61719C6.16719 5.61719 5.97819 5.69519 5.83719 5.83719C5.69519 5.97919 5.61719 6.16719 5.61719 6.36719C5.61719 6.56719 5.69519 6.75619 5.83719 6.89719L11.2202 12.2802C11.3622 12.4222 11.5502 12.5002 11.7502 12.5002C11.9502 12.5002 12.1392 12.4222 12.2802 12.2802C12.4222 12.1382 12.5002 11.9502 12.5002 11.7502C12.5002 11.5502 12.4222 11.3612 12.2802 11.2202L6.89719 5.83619C6.75519 5.69519 6.56719 5.61719 6.36719 5.61719Z" fill="#434343"/>
<path d="M5 9.5C7.48528 9.5 9.5 7.48528 9.5 5C9.5 2.51472 7.48528 0.5 5 0.5C2.51472 0.5 0.5 2.51472 0.5 5C0.5 7.48528 2.51472 9.5 5 9.5Z" fill="url(#paint1_linear_2054_10494)"/>
<path opacity="0.2" d="M5 0.8C7.316 0.8 9.2 2.684 9.2 5C9.2 7.316 7.316 9.2 5 9.2C2.684 9.2 0.8 7.316 0.8 5C0.8 2.684 2.684 0.8 5 0.8ZM5 0.5C2.515 0.5 0.5 2.515 0.5 5C0.5 7.485 2.515 9.5 5 9.5C7.485 9.5 9.5 7.485 9.5 5C9.5 2.515 7.485 0.5 5 0.5Z" fill="#434343"/>
<path d="M7.95424 2.49312C7.02924 1.43212 4.57924 0.397116 2.48124 2.00012C1.71424 2.58612 1.07324 3.92512 1.07324 5.18812C1.07324 5.85112 1.22324 6.47812 1.49024 7.03912C1.30624 6.57512 1.20524 6.07312 1.20524 5.55212C1.20524 3.67412 2.71024 1.77712 4.72224 1.74012C7.07824 1.69712 8.12324 3.30412 8.12324 4.80612C8.12324 5.91912 7.64524 6.73112 6.92424 7.18812C6.48024 7.47012 5.94324 7.61612 5.36924 7.61412C4.09824 7.60912 3.13424 6.72812 3.13424 5.43112C3.13424 4.24512 4.09724 3.55512 5.02424 3.51612C6.21324 3.46612 6.63424 4.42712 6.62624 5.04312C6.61624 5.81912 5.92224 6.26612 5.30024 6.21912C4.75824 6.17812 4.43124 5.83112 4.44924 5.25512C4.46224 4.86712 4.82524 4.57912 5.16224 4.57912C5.53724 4.57912 5.78924 4.84312 5.82524 5.09212C5.85924 5.32212 5.78824 5.68012 5.28724 5.68012C5.08424 5.68012 4.92924 5.51112 4.90524 5.38212C4.88224 5.25412 4.90024 5.02012 5.11524 5.02012C5.11524 5.02012 4.91424 5.13512 5.01424 5.32712C5.06824 5.43012 5.14624 5.45312 5.23724 5.45512C5.39024 5.44212 5.51024 5.32412 5.51024 5.17812C5.51024 4.98512 5.34224 4.82812 5.13524 4.82812C4.87624 4.82812 4.66724 5.02412 4.66724 5.26512C4.66724 5.56712 4.90424 5.93012 5.32024 5.94712C5.80624 5.96712 6.30224 5.51112 6.21324 4.96512C6.13724 4.50012 5.89424 4.03912 5.08424 4.03912C4.45224 4.03912 3.72124 4.43412 3.72124 5.34212C3.72124 6.33612 4.53524 6.96912 5.32424 6.96912C6.53824 6.96912 7.50124 6.33212 7.50124 4.95412C7.50124 4.62412 7.45124 4.28812 7.33324 3.97612C7.12624 3.42812 6.47124 2.50512 4.85424 2.48612C3.30424 2.46712 2.04724 3.74312 2.04724 5.29312C2.04724 7.11812 3.48624 8.48812 5.46924 8.49712C7.86724 8.50912 10.3472 5.23612 7.95424 2.49312Z" fill="url(#paint2_linear_2054_10494)"/>
</g>
<defs>
<linearGradient id="paint0_linear_2054_10494" x1="3.10569" y1="3.10679" x2="11.1162" y2="11.1172" gradientUnits="userSpaceOnUse">
<stop stop-color="#FAA629"/>
<stop offset="1" stop-color="#FECC81"/>
</linearGradient>
<linearGradient id="paint1_linear_2054_10494" x1="0.5" y1="5" x2="9.5" y2="5" gradientUnits="userSpaceOnUse">
<stop offset="0.2047" stop-color="#F48FB1"/>
<stop offset="0.8442" stop-color="#EC407A"/>
</linearGradient>
<linearGradient id="paint2_linear_2054_10494" x1="2.15774" y1="2.19742" x2="8.30024" y2="8.33992" gradientUnits="userSpaceOnUse">
<stop stop-color="#FCE4EB"/>
<stop offset="1" stop-color="#F48FB1"/>
</linearGradient>
<clipPath id="clip0_2054_10494">
<rect width="13" height="13" fill="white"/>
</clipPath>
</defs>
</svg>
