<svg width="30" height="30" viewBox="0 0 30 30" fill="none" xmlns="http://www.w3.org/2000/svg">
<mask id="mask0_2054_10674" style="mask-type:luminance" maskUnits="userSpaceOnUse" x="5" y="4" width="21" height="21">
<path d="M5 4H26V25H5V4Z" fill="white"/>
</mask>
<g mask="url(#mask0_2054_10674)">
<path d="M7.45976 19.2764C7.45101 19.2694 7.44226 19.2624 7.43351 19.2572C7.37751 19.2239 7.34426 19.1732 7.33201 19.1137C7.32151 19.0542 7.33551 18.9912 7.37226 18.9317C7.77826 18.7392 10.7673 17.3129 11.5058 16.6427C11.6965 16.4694 11.7875 16.0319 11.9573 15.1412C11.9958 14.9382 12.0378 14.7212 12.0833 14.4919C12.127 14.2802 12.2425 13.8882 12.3633 13.4734C12.5295 12.9082 12.701 12.3254 12.7588 11.9807C13.2383 9.08091 13.6373 5.48641 13.6408 5.45141C13.7055 4.82666 13.842 4.19141 14.3495 4.19141C14.948 4.19141 15.3663 4.56766 15.3663 5.10841L15.403 18.9387C15.403 19.9292 15.0268 20.0727 14.591 20.2389C14.346 20.3317 14.0695 20.4384 13.8735 20.6992C13.4728 21.2347 13.044 21.9452 12.6293 22.6329C12.4525 22.9252 12.2723 23.2262 12.0955 23.5079L7.45976 19.2764Z" fill="url(#paint0_radial_2054_10674)"/>
<path d="M14.3507 4.36562C14.8547 4.36562 15.1925 4.66312 15.1925 5.10762L15.2292 18.9361C15.2292 19.8059 14.951 19.9126 14.5292 20.0736C14.2632 20.1751 13.9605 20.2906 13.7347 20.5916C13.3287 21.1341 12.8982 21.8481 12.4817 22.5411C12.3417 22.7721 12.2 23.0084 12.06 23.2359L7.57999 19.1479C7.56424 19.1339 7.54674 19.1199 7.52749 19.1076C7.51174 19.0989 7.50824 19.0901 7.50824 19.0814C7.50649 19.0761 7.50649 19.0691 7.50824 19.0621C8.08574 18.7874 10.8997 17.4329 11.626 16.7731C11.8587 16.5614 11.9497 16.1309 12.1317 15.1754C12.1702 14.9741 12.2122 14.7554 12.2577 14.5279C12.2997 14.3231 12.4135 13.9346 12.5342 13.5251C12.7022 12.9546 12.8755 12.3666 12.9332 12.0096C13.4127 9.10462 13.8117 5.50662 13.817 5.46812C13.8975 4.69462 14.0567 4.36562 14.3507 4.36562ZM14.3507 4.01562C13.656 4.01562 13.5282 4.86787 13.4687 5.43137C13.4687 5.43137 13.0715 9.02237 12.5885 11.9519C12.4905 12.5451 12.0162 13.9539 11.9147 14.4579C11.6995 15.5149 11.5892 16.3321 11.3897 16.5141C10.625 17.2089 7.25799 18.7926 7.25799 18.7926C7.09349 19.0009 7.13024 19.2756 7.34199 19.4051L12.1317 23.7766C12.7442 22.8141 13.411 21.6066 14.013 20.8016C14.4942 20.1576 15.5775 20.6266 15.5775 18.9361L15.5407 5.10762C15.5407 4.50562 15.0892 4.01562 14.3507 4.01562Z" fill="#EDA600"/>
<path d="M12.6253 26.1673L3.78955 26.0693L3.88755 19.2758L9.44205 16.7821C9.7028 16.6666 10.0055 16.8118 10.0755 17.0883C10.2418 17.7376 10.6285 18.8891 11.4755 20.0441C12.2735 21.1326 13.1345 21.9726 13.67 22.4521C13.978 22.7286 14.0655 23.1748 13.8818 23.5458L11.7538 25.1821L12.6253 26.1673Z" fill="url(#paint1_linear_2054_10674)"/>
<path d="M13.5054 6.45162C13.5054 6.45162 13.6489 5.54688 14.4714 5.54688C15.2939 5.54688 15.3499 6.45162 15.3499 6.45162" stroke="#EDA600" stroke-width="0.439506" stroke-miterlimit="10" stroke-linecap="round" stroke-linejoin="round"/>
<path d="M13.2451 8.72703C13.2451 8.72703 13.4254 7.73828 14.2969 7.73828C15.1684 7.73828 15.3679 8.72703 15.3679 8.72703" stroke="#EDA600" stroke-width="0.439506" stroke-miterlimit="10" stroke-linecap="round" stroke-linejoin="round"/>
<path opacity="0.2" d="M9.58702 17.2934C9.76202 17.9497 10.1733 19.1554 11.0518 20.3542C11.8638 21.4602 12.7335 22.3177 13.3198 22.8427C13.4248 22.9372 13.4703 23.0807 13.444 23.2154L11.4455 24.6732C11.3283 24.7589 11.253 24.8867 11.2338 25.0302C11.2145 25.1737 11.2565 25.3172 11.3475 25.4292L11.512 25.6304L4.32477 25.5499L4.41052 19.6192L9.58702 17.2934ZM9.63077 16.7422C9.56777 16.7422 9.50477 16.7544 9.44352 16.7824L3.88902 19.2762L3.79102 26.0697L12.6268 26.1677L11.7535 25.0967L13.8815 23.5462C14.0653 23.1752 13.9795 22.7272 13.6698 22.4524C13.1343 21.9729 12.275 21.1347 11.4753 20.0444C10.6283 18.8912 10.2415 17.7397 10.0753 17.0887C10.0228 16.8769 9.83202 16.7422 9.63077 16.7422Z" fill="#424242"/>
</g>
<mask id="mask1_2054_10674" style="mask-type:luminance" maskUnits="userSpaceOnUse" x="5" y="4" width="21" height="21">
<path d="M5 4H26V25H5V4Z" fill="white"/>
</mask>
<g mask="url(#mask1_2054_10674)">
<path d="M18.8231 23.5062C18.6481 23.2244 18.4661 22.9234 18.2894 22.6312C17.8746 21.9434 17.4459 21.2312 17.0451 20.6974C16.8491 20.4367 16.5726 20.3299 16.3276 20.2372C15.8919 20.0709 15.5156 19.9274 15.5156 18.9369L15.5524 5.10841C15.5524 4.56766 15.9706 4.19141 16.5691 4.19141C17.0766 4.19141 17.2114 4.82841 17.2779 5.45141C17.2814 5.48816 17.6804 9.08266 18.1599 11.9824C18.2159 12.3272 18.3891 12.9117 18.5554 13.4752C18.6779 13.8899 18.7934 14.2819 18.8354 14.4937C18.8826 14.7229 18.9246 14.9417 18.9631 15.1447C19.1329 16.0354 19.2239 16.4712 19.4146 16.6444C20.1514 17.3147 23.1421 18.7409 23.5481 18.9334C23.5849 18.9912 23.5989 19.0542 23.5884 19.1137C23.5779 19.1732 23.5429 19.2239 23.4869 19.2572C23.4781 19.2624 23.4694 19.2694 23.4606 19.2764L18.8231 23.5062Z" fill="url(#paint2_radial_2054_10674)"/>
<path d="M16.5679 4.36562C16.8619 4.36562 17.0211 4.69638 17.1034 5.46987C17.1069 5.50662 17.5076 9.10462 17.9871 12.0096C18.0449 12.3649 18.2199 12.9546 18.3861 13.5234C18.5069 13.9346 18.6206 14.3214 18.6626 14.5261C18.7099 14.7554 18.7501 14.9724 18.7886 15.1736C18.9706 16.1291 19.0616 16.5596 19.2944 16.7714C20.0206 17.4329 22.8346 18.7856 23.4121 19.0604C23.4139 19.0674 23.4139 19.0744 23.4121 19.0796C23.4104 19.0866 23.4069 19.0954 23.3929 19.1059C23.3736 19.1181 23.3561 19.1304 23.3404 19.1461L18.8604 23.2341C18.7204 23.0066 18.5786 22.7704 18.4386 22.5394C18.0221 21.8481 17.5899 21.1324 17.1856 20.5899C16.9599 20.2889 16.6571 20.1734 16.3911 20.0719C15.9694 19.9109 15.6911 19.8041 15.6911 18.9361L15.7279 5.10588C15.7261 4.66313 16.0656 4.36562 16.5679 4.36562ZM16.5679 4.01562C15.8294 4.01562 15.3761 4.50562 15.3761 5.10762L15.3394 18.9361C15.3394 20.6266 16.4226 20.1576 16.9039 20.8016C17.5059 21.6066 18.1726 22.8141 18.7851 23.7766L23.5749 19.4069C23.7866 19.2774 23.8251 19.0026 23.6589 18.7944C23.6589 18.7944 20.2919 17.2106 19.5271 16.5159C19.3276 16.3339 19.2174 15.5166 19.0021 14.4596C18.9006 13.9556 18.4264 12.5469 18.3284 11.9536C17.8454 9.02412 17.4481 5.43312 17.4481 5.43312C17.3921 4.86787 17.2626 4.01562 16.5679 4.01562Z" fill="#EDA600"/>
<path d="M18.2919 26.1673L27.1276 26.0693L27.0296 19.2758L21.4751 16.7821C21.2144 16.6666 20.9116 16.8118 20.8416 17.0883C20.6754 17.7376 20.2886 18.8891 19.4416 20.0441C18.6436 21.1326 17.7826 21.9726 17.2471 22.4521C16.9391 22.7286 16.8516 23.1748 17.0354 23.5458L19.1634 25.1821L18.2919 26.1673Z" fill="url(#paint3_linear_2054_10674)"/>
<path d="M17.4129 6.45162C17.4129 6.45162 17.2694 5.54688 16.4469 5.54688C15.6244 5.54688 15.5684 6.45162 15.5684 6.45162" stroke="#EDA600" stroke-width="0.439506" stroke-miterlimit="10" stroke-linecap="round" stroke-linejoin="round"/>
<path d="M17.6735 8.72703C17.6735 8.72703 17.4933 7.73828 16.6218 7.73828C15.7485 7.73828 15.5508 8.72703 15.5508 8.72703" stroke="#EDA600" stroke-width="0.439506" stroke-miterlimit="10" stroke-linecap="round" stroke-linejoin="round"/>
<path opacity="0.2" d="M21.3316 17.2934L26.5099 19.6174L26.5956 25.5482L19.4084 25.6287L19.5729 25.4274C19.6639 25.3154 19.7059 25.1719 19.6866 25.0284C19.6674 24.8849 19.5921 24.7572 19.4749 24.6714L17.4764 23.2137C17.4501 23.0789 17.4956 22.9354 17.6006 22.8409C18.1869 22.3159 19.0566 21.4584 19.8686 20.3524C20.7454 19.1554 21.1566 17.9497 21.3316 17.2934ZM21.2879 16.7422C21.0849 16.7422 20.8959 16.8769 20.8416 17.0887C20.6754 17.7379 20.2886 18.8894 19.4416 20.0444C18.6436 21.1329 17.7826 21.9729 17.2471 22.4524C16.9391 22.7289 16.8516 23.1752 17.0354 23.5462L19.1634 25.0967L18.2901 26.1677L27.1259 26.0697L27.0279 19.2762L21.4751 16.7824C21.4139 16.7544 21.3509 16.7422 21.2879 16.7422Z" fill="#424242"/>
</g>
<defs>
<radialGradient id="paint0_radial_2054_10674" cx="0" cy="0" r="1" gradientUnits="userSpaceOnUse" gradientTransform="translate(13.3206 10.2911) scale(7.59562 11.3392)">
<stop offset="0.3533" stop-color="#FFCA28"/>
<stop offset="0.8723" stop-color="#FFB300"/>
</radialGradient>
<linearGradient id="paint1_linear_2054_10674" x1="3.79074" y1="21.4546" x2="13.9766" y2="21.4546" gradientUnits="userSpaceOnUse">
<stop stop-color="#2196F3"/>
<stop offset="1" stop-color="#64B5F6"/>
</linearGradient>
<radialGradient id="paint2_radial_2054_10674" cx="0" cy="0" r="1" gradientUnits="userSpaceOnUse" gradientTransform="translate(17.5945 10.2911) rotate(180) scale(7.59562 11.3392)">
<stop offset="0.3533" stop-color="#FFCA28"/>
<stop offset="0.8723" stop-color="#FFB300"/>
</radialGradient>
<linearGradient id="paint3_linear_2054_10674" x1="27.1276" y1="21.4546" x2="16.9426" y2="21.4546" gradientUnits="userSpaceOnUse">
<stop stop-color="#2196F3"/>
<stop offset="1" stop-color="#64B5F6"/>
</linearGradient>
</defs>
</svg>
