<svg width="375" height="337" viewBox="0 0 375 337" fill="none" xmlns="http://www.w3.org/2000/svg">
<path d="M0 30C0 13.4315 13.4315 0 30 0H345C361.569 0 375 13.4315 375 30V307C375 323.569 361.569 337 345 337H30C13.4315 337 0 323.569 0 307V30Z" fill="#FF4747" fill-opacity="0.05"/>
<path opacity="0.15" d="M2 239.191C30.7975 236.068 33.7736 271.937 55.3573 291.579C75.6715 310.065 104.127 309.721 109 337H32C15.4315 337 2 323.569 2 307V239.191Z" fill="url(#paint0_linear_2054_10804)"/>
<path opacity="0.1" d="M375 115C327.687 33.6371 237.546 61.1909 222.863 36.8577C208.678 13.3505 251.822 8.82188e-07 251.822 8.82188e-07H345C361.569 8.82188e-07 375 13.4315 375 30V115Z" fill="url(#paint1_linear_2054_10804)"/>
<defs>
<linearGradient id="paint0_linear_2054_10804" x1="2" y1="288" x2="109" y2="288" gradientUnits="userSpaceOnUse">
<stop stop-color="#FF6666"/>
<stop offset="1" stop-color="#FF9688" stop-opacity="0"/>
</linearGradient>
<linearGradient id="paint1_linear_2054_10804" x1="375" y1="57.5" x2="220" y2="57.5" gradientUnits="userSpaceOnUse">
<stop stop-color="#FF6666"/>
<stop offset="1" stop-color="#FF9688" stop-opacity="0"/>
</linearGradient>
</defs>
</svg>
