<svg width="13" height="13" viewBox="0 0 13 13" fill="none" xmlns="http://www.w3.org/2000/svg">
<path d="M11.4842 1.2113C11.4797 1.15363 11.454 1.09982 11.4123 1.06065C11.3706 1.02148 11.3159 0.999816 11.2592 1C11.1242 1 7.88001 1 6.7596 2.41479C6.31485 2.90077 6.03186 3.51777 5.95106 4.1777C5.87025 4.83764 5.99575 5.50677 6.30964 6.08955C6.81966 4.97797 7.53814 3.97921 8.42446 3.14974C8.51401 3.06944 8.63111 3.0287 8.75006 3.03645C8.86901 3.0442 8.98009 3.09981 9.05891 3.19108C9.1067 3.24978 9.14057 3.31895 9.1579 3.39319C9.0663 3.40321 8.97992 3.44169 8.91042 3.50344C7.06558 5.12033 6.08916 7.80751 5.5987 9.62652C5.5402 9.24985 5.46821 8.83644 5.37822 8.40925C4.86976 5.80935 3.82135 2.49747 1.81901 1.57418C1.78121 1.55676 1.73949 1.55013 1.6983 1.55498C1.6571 1.55983 1.61795 1.576 1.58503 1.60174C1.55291 1.62728 1.52833 1.66139 1.51404 1.70031C1.49974 1.73923 1.49628 1.78143 1.50404 1.82223C2.22851 5.2296 3.48494 8.4959 5.22523 11.4961C5.22705 11.5776 5.2501 11.6571 5.29201 11.7266C5.33392 11.796 5.39319 11.8528 5.46371 11.8911C5.48404 11.9234 5.51199 11.9501 5.54501 11.9685C5.57802 11.987 5.61505 11.9967 5.65269 11.9967C5.67499 12.0011 5.69789 12.0011 5.72019 11.9967C5.75732 11.9881 5.79057 11.9671 5.81468 11.937C5.89343 11.9111 5.96366 11.8635 6.01765 11.7995C6.07163 11.7355 6.10727 11.6575 6.12065 11.5741C6.37828 9.98465 6.84917 8.43897 7.52004 6.98068C7.66838 7.00916 7.81906 7.02301 7.97 7.02203C8.91942 7.02203 9.87784 6.44325 10.5888 5.37297C11.6687 3.70555 11.4932 1.31236 11.4842 1.2113Z" fill="url(#paint0_linear_2053_10339)"/>
<defs>
<linearGradient id="paint0_linear_2053_10339" x1="6.5" y1="1" x2="6.5" y2="12" gradientUnits="userSpaceOnUse">
<stop stop-color="#54BA54"/>
<stop offset="1" stop-color="#056A05"/>
</linearGradient>
</defs>
</svg>
