<svg width="24" height="24" viewBox="0 0 24 24" fill="none" xmlns="http://www.w3.org/2000/svg">
<mask id="mask0_2048_9916" style="mask-type:alpha" maskUnits="userSpaceOnUse" x="0" y="0" width="24" height="24">
<rect width="24" height="24" fill="#D9D9D9"/>
</mask>
<g mask="url(#mask0_2048_9916)">
<path d="M16.0004 8.4L7.12539 17.3C6.92539 17.5 6.68789 17.6 6.41289 17.6C6.13789 17.6 5.90039 17.5 5.70039 17.3C5.50039 17.1 5.40039 16.8625 5.40039 16.5875C5.40039 16.3125 5.50039 16.075 5.70039 15.875L14.6004 7H7.00039C6.71706 7 6.47956 6.90417 6.28789 6.7125C6.09622 6.52083 6.00039 6.28333 6.00039 6C6.00039 5.71667 6.09622 5.47917 6.28789 5.2875C6.47956 5.09583 6.71706 5 7.00039 5H17.0004C17.2837 5 17.5212 5.09583 17.7129 5.2875C17.9046 5.47917 18.0004 5.71667 18.0004 6V16C18.0004 16.2833 17.9046 16.5208 17.7129 16.7125C17.5212 16.9042 17.2837 17 17.0004 17C16.7171 17 16.4796 16.9042 16.2879 16.7125C16.0962 16.5208 16.0004 16.2833 16.0004 16V8.4Z" fill="#222222"/>
</g>
</svg>
