<svg width="24" height="24" viewBox="0 0 24 24" fill="none" xmlns="http://www.w3.org/2000/svg">
<mask id="mask0_2048_9886" style="mask-type:alpha" maskUnits="userSpaceOnUse" x="0" y="0" width="24" height="24">
<rect width="24" height="24" fill="#D9D9D9"/>
</mask>
<g mask="url(#mask0_2048_9886)">
<path d="M9.1248 21.0984L0.699805 12.6984C0.599805 12.5984 0.528971 12.4901 0.487305 12.3734C0.445638 12.2568 0.424805 12.1318 0.424805 11.9984C0.424805 11.8651 0.445638 11.7401 0.487305 11.6234C0.528971 11.5068 0.599805 11.3984 0.699805 11.2984L9.1248 2.87344C9.35814 2.6401 9.6498 2.52344 9.9998 2.52344C10.3498 2.52344 10.6498 2.64844 10.8998 2.89844C11.1498 3.14844 11.2748 3.4401 11.2748 3.77344C11.2748 4.10677 11.1498 4.39844 10.8998 4.64844L3.5498 11.9984L10.8998 19.3484C11.1331 19.5818 11.2498 19.8693 11.2498 20.2109C11.2498 20.5526 11.1248 20.8484 10.8748 21.0984C10.6248 21.3484 10.3331 21.4734 9.9998 21.4734C9.66647 21.4734 9.3748 21.3484 9.1248 21.0984Z" fill="#222222"/>
</g>
</svg>
