<svg width="24" height="24" viewBox="0 0 24 24" fill="none" xmlns="http://www.w3.org/2000/svg">
<mask id="mask0_2048_9796" style="mask-type:alpha" maskUnits="userSpaceOnUse" x="0" y="0" width="24" height="24">
<rect width="24" height="24" fill="#D9D9D9"/>
</mask>
<g mask="url(#mask0_2048_9796)">
<path d="M6.0002 20.0008C5.71686 20.0008 5.47936 19.9049 5.2877 19.7133C5.09603 19.5216 5.0002 19.2841 5.0002 19.0008C5.0002 18.7174 5.09603 18.4799 5.2877 18.2883C5.47936 18.0966 5.71686 18.0008 6.0002 18.0008H18.0002C18.2835 18.0008 18.521 18.0966 18.7127 18.2883C18.9044 18.4799 19.0002 18.7174 19.0002 19.0008C19.0002 19.2841 18.9044 19.5216 18.7127 19.7133C18.521 19.9049 18.2835 20.0008 18.0002 20.0008H6.0002ZM9.5502 15.5758C9.41686 15.5758 9.29186 15.5549 9.1752 15.5133C9.05853 15.4716 8.9502 15.4008 8.8502 15.3008L4.6002 11.0508C4.41686 10.8674 4.3252 10.6258 4.3252 10.3258C4.3252 10.0258 4.41686 9.78411 4.6002 9.60078C4.78353 9.41745 5.01686 9.32578 5.3002 9.32578C5.58353 9.32578 5.81686 9.41745 6.0002 9.60078L9.5502 13.1508L18.0002 4.70078C18.1835 4.51745 18.421 4.42578 18.7127 4.42578C19.0044 4.42578 19.2419 4.51745 19.4252 4.70078C19.6085 4.88411 19.7002 5.12161 19.7002 5.41328C19.7002 5.70495 19.6085 5.94245 19.4252 6.12578L10.2502 15.3008C10.1502 15.4008 10.0419 15.4716 9.9252 15.5133C9.80853 15.5549 9.68353 15.5758 9.5502 15.5758Z" fill="#222222"/>
</g>
</svg>
