<svg width="24" height="24" viewBox="0 0 24 24" fill="none" xmlns="http://www.w3.org/2000/svg">
<mask id="mask0_2048_9820" style="mask-type:alpha" maskUnits="userSpaceOnUse" x="0" y="0" width="24" height="24">
<rect width="24" height="24" fill="#D9D9D9"/>
</mask>
<g mask="url(#mask0_2048_9820)">
<path d="M8.85002 17.8242L12 15.9242L15.15 17.8492L14.325 14.2492L17.1 11.8492L13.45 11.5242L12 8.12422L10.55 11.4992L6.90001 11.8242L9.67501 14.2492L8.85002 17.8242ZM12 18.2742L7.85002 20.7742C7.66668 20.8909 7.47501 20.9409 7.27501 20.9242C7.07501 20.9076 6.90002 20.8409 6.75002 20.7242C6.60002 20.6076 6.48335 20.4617 6.40002 20.2867C6.31668 20.1117 6.30002 19.9159 6.35002 19.6992L7.45002 14.9742L3.77502 11.7992C3.60835 11.6492 3.50418 11.4784 3.46252 11.2867C3.42085 11.0951 3.43335 10.9076 3.50002 10.7242C3.56668 10.5409 3.66668 10.3909 3.80002 10.2742C3.93335 10.1576 4.11668 10.0826 4.35002 10.0492L9.20002 9.62422L11.075 5.17422C11.1583 4.97422 11.2875 4.82422 11.4625 4.72422C11.6375 4.62422 11.8167 4.57422 12 4.57422C12.1833 4.57422 12.3625 4.62422 12.5375 4.72422C12.7125 4.82422 12.8417 4.97422 12.925 5.17422L14.8 9.62422L19.65 10.0492C19.8833 10.0826 20.0667 10.1576 20.2 10.2742C20.3333 10.3909 20.4333 10.5409 20.5 10.7242C20.5667 10.9076 20.5792 11.0951 20.5375 11.2867C20.4958 11.4784 20.3917 11.6492 20.225 11.7992L16.55 14.9742L17.65 19.6992C17.7 19.9159 17.6833 20.1117 17.6 20.2867C17.5167 20.4617 17.4 20.6076 17.25 20.7242C17.1 20.8409 16.925 20.9076 16.725 20.9242C16.525 20.9409 16.3333 20.8909 16.15 20.7742L12 18.2742Z" fill="#222222"/>
</g>
</svg>
