<svg width="24" height="24" viewBox="0 0 24 24" fill="none" xmlns="http://www.w3.org/2000/svg">
<mask id="mask0_2048_9862" style="mask-type:alpha" maskUnits="userSpaceOnUse" x="0" y="0" width="24" height="24">
<rect width="24" height="24" fill="#D9D9D9"/>
</mask>
<g mask="url(#mask0_2048_9862)">
<path d="M6.5 16C6.21667 16 5.97917 15.9042 5.7875 15.7125C5.59583 15.5208 5.5 15.2833 5.5 15C5.5 14.7167 5.59583 14.4792 5.7875 14.2875C5.97917 14.0958 6.21667 14 6.5 14H8.5C8.78333 14 9.02083 14.0958 9.2125 14.2875C9.40417 14.4792 9.5 14.7167 9.5 15C9.5 15.2833 9.40417 15.5208 9.2125 15.7125C9.02083 15.9042 8.78333 16 8.5 16H6.5ZM6.5 12C6.21667 12 5.97917 11.9042 5.7875 11.7125C5.59583 11.5208 5.5 11.2833 5.5 11C5.5 10.7167 5.59583 10.4792 5.7875 10.2875C5.97917 10.0958 6.21667 10 6.5 10H17.5C17.7833 10 18.0208 10.0958 18.2125 10.2875C18.4042 10.4792 18.5 10.7167 18.5 11C18.5 11.2833 18.4042 11.5208 18.2125 11.7125C18.0208 11.9042 17.7833 12 17.5 12H6.5ZM6.5 8C6.21667 8 5.97917 7.90417 5.7875 7.7125C5.59583 7.52083 5.5 7.28333 5.5 7C5.5 6.71667 5.59583 6.47917 5.7875 6.2875C5.97917 6.09583 6.21667 6 6.5 6H17.5C17.7833 6 18.0208 6.09583 18.2125 6.2875C18.4042 6.47917 18.5 6.71667 18.5 7C18.5 7.28333 18.4042 7.52083 18.2125 7.7125C18.0208 7.90417 17.7833 8 17.5 8H6.5ZM15.45 17.15L20.375 12.225C20.575 12.025 20.8125 11.9292 21.0875 11.9375C21.3625 11.9458 21.6 12.05 21.8 12.25C21.9833 12.45 22.0792 12.6833 22.0875 12.95C22.0958 13.2167 22 13.45 21.8 13.65L16.15 19.3C15.95 19.5 15.7167 19.6 15.45 19.6C15.1833 19.6 14.95 19.5 14.75 19.3L11.9 16.45C11.7167 16.2667 11.6208 16.0375 11.6125 15.7625C11.6042 15.4875 11.7 15.25 11.9 15.05C12.0833 14.8667 12.3125 14.775 12.5875 14.775C12.8625 14.775 13.1 14.8667 13.3 15.05L15.45 17.15ZM2.5 8C2.21667 8 1.97917 7.90417 1.7875 7.7125C1.59583 7.52083 1.5 7.28333 1.5 7C1.5 6.71667 1.59583 6.47917 1.7875 6.2875C1.97917 6.09583 2.21667 6 2.5 6C2.78333 6 3.02083 6.09583 3.2125 6.2875C3.40417 6.47917 3.5 6.71667 3.5 7C3.5 7.28333 3.40417 7.52083 3.2125 7.7125C3.02083 7.90417 2.78333 8 2.5 8ZM2.5 12C2.21667 12 1.97917 11.9042 1.7875 11.7125C1.59583 11.5208 1.5 11.2833 1.5 11C1.5 10.7167 1.59583 10.4792 1.7875 10.2875C1.97917 10.0958 2.21667 10 2.5 10C2.78333 10 3.02083 10.0958 3.2125 10.2875C3.40417 10.4792 3.5 10.7167 3.5 11C3.5 11.2833 3.40417 11.5208 3.2125 11.7125C3.02083 11.9042 2.78333 12 2.5 12ZM2.5 16C2.21667 16 1.97917 15.9042 1.7875 15.7125C1.59583 15.5208 1.5 15.2833 1.5 15C1.5 14.7167 1.59583 14.4792 1.7875 14.2875C1.97917 14.0958 2.21667 14 2.5 14C2.78333 14 3.02083 14.0958 3.2125 14.2875C3.40417 14.4792 3.5 14.7167 3.5 15C3.5 15.2833 3.40417 15.5208 3.2125 15.7125C3.02083 15.9042 2.78333 16 2.5 16Z" fill="#222222"/>
</g>
</svg>
