<svg width="24" height="24" viewBox="0 0 24 24" fill="none" xmlns="http://www.w3.org/2000/svg">
<mask id="mask0_2048_9826" style="mask-type:alpha" maskUnits="userSpaceOnUse" x="0" y="0" width="24" height="24">
<rect width="24" height="24" fill="#D9D9D9"/>
</mask>
<g mask="url(#mask0_2048_9826)">
<path d="M11.0998 9C10.1832 9 9.28315 9.12917 8.39982 9.3875C7.51649 9.64583 6.69982 10.0333 5.94982 10.55L6.99982 20H16.9998L18.0998 10H17.4248C16.7915 10 16.2123 9.95417 15.6873 9.8625C15.1623 9.77083 14.4498 9.59167 13.5498 9.325C13.1665 9.20833 12.7665 9.125 12.3498 9.075C11.9332 9.025 11.5165 9 11.0998 9ZM5.22482 4L5.69982 8.375C6.54982 7.925 7.42899 7.58333 8.33732 7.35C9.24565 7.11667 10.1748 7 11.1248 7C11.6248 7 12.1207 7.03333 12.6123 7.1C13.104 7.16667 13.5915 7.26667 14.0748 7.4C14.9082 7.63333 15.5457 7.79167 15.9873 7.875C16.429 7.95833 16.8998 8 17.3998 8H18.3248L18.7498 4H5.22482ZM6.99982 22C6.48315 22 6.03315 21.8333 5.64982 21.5C5.26649 21.1667 5.04982 20.7417 4.99982 20.225L3.12482 3.1C3.09149 2.8 3.17482 2.54167 3.37482 2.325C3.57482 2.10833 3.82482 2 4.12482 2H19.8748C20.1748 2 20.4248 2.10833 20.6248 2.325C20.8248 2.54167 20.9082 2.8 20.8748 3.1L18.9998 20.225C18.9498 20.7417 18.7332 21.1667 18.3498 21.5C17.9665 21.8333 17.5165 22 16.9998 22H6.99982Z" fill="#222222"/>
</g>
</svg>
